<?xml version="1.0" encoding="utf-8"?>
<!-- Generator: Adobe Illustrator 24.3.0, SVG Export Plug-In . SVG Version: 6.00 Build 0)  -->
<svg version="1.1" id="Capa_1" xmlns="http://www.w3.org/2000/svg" xmlns:xlink="http://www.w3.org/1999/xlink" x="0px" y="0px"
	 viewBox="0 0 20.2 20.2" style="enable-background:new 0 0 20.2 20.2;" xml:space="preserve">
<style type="text/css">
	.st0{fill:#F6B944;}
	.st1{fill:#FFFFFF;}
</style>
<g>
	<polygon class="st0" points="2,16.9 3.2,18 3.2,19.4 0.8,17.1 1.1,16.9 	"/>
	<g>
		<g>
			<path class="st0" d="M7.6,16.1C7.7,16,19.5,4.3,19.5,4.3l-1-0.5l-9.4,8.9L7.6,16.1z"/>
		</g>
		<rect x="0.3" y="0.3" class="st0" width="1.4" height="16.5"/>
		<g>
			<path class="st1" d="M13.6,13.3c-0.2,0-0.3,0.1-0.3,0.3v5.9H3.7v-2.7c0-0.2-0.1-0.3-0.3-0.3H0.7V0.7h12.6v5.9
				c0,0.2,0.1,0.3,0.3,0.3s0.3-0.1,0.3-0.3V0.3c0-0.2-0.1-0.3-0.3-0.3H0.3C0.1,0,0,0.1,0,0.3v16.5c0,0,0,0,0,0c0,0,0,0,0,0
				c0,0,0,0,0,0c0,0,0,0,0,0c0,0,0,0,0,0c0,0,0,0,0,0c0,0,0,0,0,0c0,0,0,0,0,0c0,0,0,0,0,0c0,0,0,0,0,0c0,0,0,0,0,0c0,0,0,0,0,0
				c0,0,0,0,0,0c0,0,0,0,0,0l3,3c0,0,0,0,0,0c0,0,0,0,0,0c0,0,0,0,0,0c0,0,0,0,0,0c0,0,0,0,0,0c0,0,0,0,0,0c0,0,0,0,0,0c0,0,0,0,0,0
				c0,0,0,0,0,0c0,0,0,0,0,0c0,0,0,0,0,0c0,0,0,0,0,0c0,0,0,0,0,0c0,0,0,0,0,0h10.2c0.2,0,0.3-0.1,0.3-0.3v-6.3
				C13.9,13.4,13.8,13.3,13.6,13.3z M3,19.1l-1.9-1.9H3V19.1z"/>
			<path class="st1" d="M11.4,17.6c0.2,0,0.3-0.1,0.3-0.3c0-0.2-0.1-0.3-0.3-0.3H8.6c-0.2,0-0.3,0.1-0.3,0.3c0,0.2,0.1,0.3,0.3,0.3
				H11.4z"/>
			<path class="st1" d="M11.4,3H2.5C2.3,3,2.2,3.2,2.2,3.4c0,0.2,0.1,0.3,0.3,0.3h8.9c0.2,0,0.3-0.1,0.3-0.3C11.8,3.2,11.6,3,11.4,3
				z"/>
			<path class="st1" d="M11.4,4.8H2.5c-0.2,0-0.3,0.1-0.3,0.3s0.1,0.3,0.3,0.3h8.9c0.2,0,0.3-0.1,0.3-0.3S11.6,4.8,11.4,4.8z"/>
			<path class="st1" d="M11.4,6.5H2.5c-0.2,0-0.3,0.1-0.3,0.3c0,0.2,0.1,0.3,0.3,0.3h8.9c0.2,0,0.3-0.1,0.3-0.3
				C11.8,6.7,11.6,6.5,11.4,6.5z"/>
			<path class="st1" d="M11.8,8.6c0-0.2-0.1-0.3-0.3-0.3H2.5c-0.2,0-0.3,0.1-0.3,0.3s0.1,0.3,0.3,0.3h8.9
				C11.6,8.9,11.8,8.8,11.8,8.6z"/>
			<path class="st1" d="M10.2,10.3c0-0.2-0.1-0.3-0.3-0.3H2.5c-0.2,0-0.3,0.1-0.3,0.3s0.1,0.3,0.3,0.3h7.4
				C10.1,10.6,10.2,10.5,10.2,10.3z"/>
			<path class="st1" d="M2.5,11.7c-0.2,0-0.3,0.1-0.3,0.3c0,0.2,0.1,0.3,0.3,0.3H7c0.2,0,0.3-0.1,0.3-0.3c0-0.2-0.1-0.3-0.3-0.3H2.5
				z"/>
			<path class="st1" d="M19.8,3.9c-0.3-0.3-0.7-0.4-1.1-0.4s-0.8,0.2-1.1,0.4l-1,1h0h0l-0.9,0.9h0c0,0,0,0,0,0l-6.6,6.6c0,0,0,0,0,0
				c0,0,0,0,0,0c0,0,0,0,0,0c0,0,0,0,0,0l-1.9,3.3C7.1,15.9,7,16,7,16.1c0,0.1,0.1,0.3,0.2,0.4c0.1,0.1,0.2,0.2,0.4,0.2
				c0.1,0,0.2,0,0.3-0.1l3.3-1.9c0,0,0,0,0,0c0,0,0,0,0,0c0,0,0,0,0,0c0,0,0,0,0,0L17.8,8c0,0,0,0,0,0s0,0,0,0l0.9-0.9h0h0l1-1
				C20.3,5.5,20.3,4.5,19.8,3.9z M17.6,7.3l-1.2-1.2l0.5-0.5L18,6.9L17.6,7.3z M11,13.9l-1.2-1.2l6.1-6.1l1.2,1.2L11,13.9z
				 M9.1,15.1l-0.5-0.5l0.8-1.4l1.1,1.1L9.1,15.1z M7.9,15.8l0.4-0.7l0.3,0.3L7.9,15.8z M19.3,5.6l-0.8,0.8l-1.2-1.2l0.8-0.8
				c0.2-0.2,0.4-0.2,0.6-0.2s0.4,0.1,0.6,0.2c0.2,0.2,0.2,0.4,0.2,0.6C19.5,5.2,19.5,5.4,19.3,5.6z"/>
		</g>
	</g>
</g>
</svg>
