<?xml version="1.0" encoding="utf-8"?>
<!-- Generator: Adobe Illustrator 24.3.0, SVG Export Plug-In . SVG Version: 6.00 Build 0)  -->
<svg version="1.1" id="Capa_1" xmlns="http://www.w3.org/2000/svg" xmlns:xlink="http://www.w3.org/1999/xlink" x="0px" y="0px"
	 viewBox="0 0 20.3 20.2" style="enable-background:new 0 0 20.3 20.2;" xml:space="preserve">
<style type="text/css">
	.st0{fill:#F6B944;}
	.st1{fill:#FFFFFF;}
</style>
<g>
	<g>
		<path class="st0" d="M10.1,14.4c-2.4,0-4.2-1.8-4.2-4.2S7.7,6,10.1,6s4.2,1.8,4.2,4.2S12.5,14.4,10.1,14.4z M10.1,8
			c-1.3,0-2.2,0.9-2.2,2.2c0,1.3,0.9,2.2,2.2,2.2s2.2-0.9,2.2-2.2C12.3,8.9,11.4,8,10.1,8z"/>
	</g>
	<g>
		<path class="st0" d="M9.7,17c-0.1-0.5-0.5-0.8-1-1l-0.2,0c-0.4-0.1-0.9-0.3-1.5-0.6c-0.4-0.2-0.8-0.3-1.2-0.2
			c-0.3,0.1-0.6,0.3-0.8,0.5L4.8,16l-0.5-0.5l0.4-0.4c0.5-0.5,0.6-1.2,0.3-1.9c-0.3-0.5-0.5-1.1-0.6-1.7l-0.1-0.1
			c-0.3-0.6-0.9-1-1.5-1H2.2V9.8h0.6c0.8,0,1.3-0.4,1.5-1.1l0-0.2C4.5,8.1,4.7,7.6,5,7c0.3-0.6,0.2-1.4-0.3-1.9L4.3,4.8l0.5-0.5
			l0.4,0.4C5.7,5.2,6.4,5.3,7.1,5C7.5,4.7,8,4.5,8.5,4.4l0.2,0l0.1-0.1c0.4-0.2,0.7-0.6,0.9-1V0.2H9.5c-1,0-1.7,0.7-1.7,1.7v0.6
			C7.2,2.6,6.7,2.9,6.4,3.1L6,2.7C5.3,2,4.3,2,3.6,2.7L2.7,3.6C2,4.3,2,5.3,2.7,6l0.4,0.4C2.9,6.8,2.6,7.3,2.5,7.8H1.9
			c-1,0-1.7,0.7-1.7,1.7v1.3c0,1,0.7,1.7,1.7,1.7h0.6c0.2,0.5,0.3,0.9,0.5,1.4l-0.4,0.4C2,15,2,16,2.7,16.7l0.9,0.9
			c0.3,0.3,0.8,0.5,1.2,0.5c0,0,0,0,0,0c0.4,0,0.9-0.2,1.2-0.5l0.4-0.4c0.4,0.2,0.9,0.4,1.4,0.6v0.6c0,1,0.7,1.7,1.7,1.7h0.2V17z"/>
	</g>
	<g>
		<g>
			<path class="st1" d="M10.8,20.2H9.5c-1,0-1.9-0.8-1.9-1.9v-0.4c-0.4-0.1-0.9-0.3-1.3-0.5L6,17.7c-0.7,0.7-1.9,0.7-2.6,0l-0.9-0.9
				c-0.7-0.7-0.7-1.9,0-2.6l0.3-0.3c-0.2-0.4-0.4-0.8-0.5-1.3H1.9c-1,0-1.9-0.8-1.9-1.9V9.5c0-1,0.8-1.9,1.9-1.9h0.4
				c0.1-0.4,0.3-0.9,0.5-1.3L2.5,6.1c-0.7-0.7-0.7-1.9,0-2.6l0.9-0.9c0.7-0.7,1.9-0.7,2.6,0l0.3,0.3c0.4-0.2,0.8-0.4,1.3-0.5V1.9
				c0-1,0.8-1.9,1.9-1.9h1.3c1,0,1.9,0.8,1.9,1.9v0.4c0.4,0.1,0.9,0.3,1.3,0.5l0.3-0.3c0.7-0.7,1.9-0.7,2.6,0l0.9,0.9
				c0.7,0.7,0.7,1.9,0,2.6l-0.3,0.3c0.2,0.4,0.4,0.8,0.5,1.3h0.4c1,0,1.9,0.8,1.9,1.9v1.3c0,1-0.8,1.9-1.9,1.9H18
				c-0.1,0.4-0.3,0.9-0.5,1.3l0.3,0.3c0.7,0.7,0.7,1.9,0,2.6l-0.9,0.9c-0.7,0.7-1.9,0.7-2.6,0L14,17.5c-0.4,0.2-0.8,0.4-1.3,0.5v0.4
				C12.6,19.4,11.8,20.2,10.8,20.2z M6.6,16.2c0.6,0.3,1.2,0.6,1.8,0.7c0.3,0.1,0.4,0.3,0.4,0.6v0.9c0,0.4,0.3,0.7,0.7,0.7h1.3
				c0.4,0,0.7-0.3,0.7-0.7v-0.9c0-0.3,0.2-0.5,0.4-0.6c0.6-0.2,1.2-0.4,1.8-0.7c0.2-0.1,0.5-0.1,0.7,0.1l0.6,0.6
				c0.3,0.3,0.7,0.3,1,0l0.9-0.9c0.3-0.3,0.3-0.7,0-1l-0.6-0.6c-0.2-0.2-0.2-0.5-0.1-0.7c0.3-0.6,0.6-1.2,0.7-1.8
				c0.1-0.3,0.3-0.4,0.6-0.4h0.9c0.4,0,0.7-0.3,0.7-0.7V9.5c0-0.4-0.3-0.7-0.7-0.7h-0.9c-0.3,0-0.5-0.2-0.6-0.4
				c-0.2-0.6-0.4-1.2-0.7-1.8c-0.1-0.2-0.1-0.5,0.1-0.7l0.6-0.6c0.3-0.3,0.3-0.7,0-1L16,3.4c-0.3-0.3-0.7-0.3-1,0L14.4,4
				c-0.2,0.2-0.5,0.2-0.7,0.1c-0.6-0.3-1.2-0.6-1.8-0.7c-0.3-0.1-0.4-0.3-0.4-0.6V1.9c0-0.4-0.3-0.7-0.7-0.7H9.5
				c-0.4,0-0.7,0.3-0.7,0.7v0.9c0,0.3-0.2,0.5-0.4,0.6C7.7,3.5,7.1,3.8,6.6,4.1C6.4,4.2,6.1,4.2,5.9,4L5.3,3.4c-0.3-0.3-0.7-0.3-1,0
				L3.4,4.3c-0.3,0.3-0.3,0.7,0,1L4,5.9c0.2,0.2,0.2,0.5,0.1,0.7C3.8,7.2,3.5,7.8,3.4,8.4C3.3,8.7,3.1,8.8,2.8,8.8H1.9
				c-0.4,0-0.7,0.3-0.7,0.7v1.3c0,0.4,0.3,0.7,0.7,0.7h0.9c0.3,0,0.5,0.2,0.6,0.4c0.2,0.6,0.4,1.2,0.7,1.8c0.1,0.2,0.1,0.5-0.1,0.7
				L3.4,15c-0.3,0.3-0.3,0.7,0,1l0.9,0.9c0.3,0.3,0.7,0.3,1,0l0.6-0.6C6,16.1,6.3,16,6.6,16.2L6.6,16.2z"/>
		</g>
		<g>
			<path class="st1" d="M10.1,14.5c-2.4,0-4.4-2-4.4-4.4s2-4.4,4.4-4.4s4.4,2,4.4,4.4S12.5,14.5,10.1,14.5z M10.1,7
				c-1.8,0-3.2,1.4-3.2,3.2s1.4,3.2,3.2,3.2s3.2-1.4,3.2-3.2S11.9,7,10.1,7L10.1,7z"/>
		</g>
	</g>
</g>
</svg>
