<svg id="Capa_1" data-name="Capa 1" xmlns="http://www.w3.org/2000/svg" viewBox="0 0 10.7 20.13"><defs><style>.cls-1{fill:#f6b944;}.cls-2{fill:#fff;}</style></defs><path class="cls-1" d="M1.82.38H3.26a0,0,0,0,1,0,0V19.76a0,0,0,0,1,0,0H1.82a1.5,1.5,0,0,1-1.5-1.5V1.88A1.5,1.5,0,0,1,1.82.38Z"/><path class="cls-2" d="M9.12,0H1.57A1.57,1.57,0,0,0,0,1.57v17a1.57,1.57,0,0,0,1.57,1.57H9.12a1.58,1.58,0,0,0,1.58-1.57v-17A1.58,1.58,0,0,0,9.12,0Zm1,18.56a1,1,0,0,1-1,.94H1.57a.94.94,0,0,1-.94-.94V16.67h9.44Zm0-2.52H.63V3.46h9.44Zm0-13.21H.63V1.57A.94.94,0,0,1,1.57.63H9.12a1,1,0,0,1,1,.94Z"/><path class="cls-2" d="M5.35,17a.94.94,0,1,0,.94.94A.95.95,0,0,0,5.35,17Zm0,1.26A.32.32,0,0,1,5,17.93a.32.32,0,0,1,.63,0A.32.32,0,0,1,5.35,18.25Z"/><path class="cls-2" d="M6.61,1.57H4.09a.32.32,0,1,0,0,.63H6.61a.32.32,0,0,0,0-.63Z"/><path class="cls-2" d="M9.12,14.79H8.81a.31.31,0,1,0,0,.62h.31a.31.31,0,1,0,0-.62Z"/><path class="cls-2" d="M7.86,14.79H7.55a.31.31,0,0,0,0,.62h.31a.31.31,0,1,0,0-.62Z"/><path class="cls-2" d="M6.61,14.79H6.29a.31.31,0,0,0,0,.62h.32a.31.31,0,1,0,0-.62Z"/></svg>