<svg id="Capa_1" data-name="Capa 1" xmlns="http://www.w3.org/2000/svg" viewBox="0 0 20.13 18.78"><defs><style>.cls-1{fill:#f6b944;}.cls-2{fill:#fff;}</style></defs><rect class="cls-1" x="1.63" y="1.74" width="3.06" height="15.31"/><rect class="cls-1" x="11.74" y="8.38" width="3.06" height="8.66"/><path class="cls-2" d="M19.15,16.82H18.9V12a.3.3,0,1,0-.59,0v4.87H12.05v-8h6a.24.24,0,0,1,.24.24v1.52a.3.3,0,0,0,.59,0V9a.83.83,0,0,0-.83-.83h-6V2.85A.84.84,0,0,0,11.29,2V1.43A.83.83,0,0,0,10.53.6L2.89,0A.84.84,0,0,0,2,.83V1.3a.84.84,0,0,0-.76.83V16.82H1a1,1,0,1,0,0,2H19.15a1,1,0,1,0,0-2ZM2.58.83A.24.24,0,0,1,2.84.59l7.64.6a.23.23,0,0,1,.22.24V2L2.58,1.34V.83Zm-.76,1.3a.24.24,0,0,1,.26-.24l9.16.72a.23.23,0,0,1,.22.24v14h-.82V12.59a.48.48,0,0,0-.49-.48H7.41a.48.48,0,0,0-.48.48v1.92a.29.29,0,0,0,.29.29.3.3,0,0,0,.3-.29V12.7h2.53v4.12H7.52v-.94a.3.3,0,0,0-.3-.29.29.29,0,0,0-.29.29v.94H1.82ZM19.15,18.19H1a.39.39,0,0,1,0-.78H19.15a.39.39,0,0,1,0,.78Z"/><path class="cls-2" d="M3,5.73h1.2a.51.51,0,0,0,.51-.51V4.3a.5.5,0,0,0-.51-.5H3a.5.5,0,0,0-.5.5v.92A.5.5,0,0,0,3,5.73Zm.09-1.35h1v.76h-1Z"/><path class="cls-2" d="M6,5.73h1.2a.5.5,0,0,0,.5-.51V4.3a.5.5,0,0,0-.5-.5H6a.5.5,0,0,0-.51.5v.92A.51.51,0,0,0,6,5.73ZM6,4.38h1v.76H6Z"/><path class="cls-2" d="M8.94,5.73h1.19a.51.51,0,0,0,.51-.51V4.3a.5.5,0,0,0-.51-.5H8.94a.5.5,0,0,0-.51.5v.92a.51.51,0,0,0,.51.51ZM9,4.38h1v.76H9Z"/><path class="cls-2" d="M3,8.38h1.2a.51.51,0,0,0,.51-.51V7a.51.51,0,0,0-.51-.51H3a.5.5,0,0,0-.5.51v.91a.5.5,0,0,0,.5.51ZM3.07,7h1v.75h-1Z"/><path class="cls-2" d="M6,8.38h1.2a.5.5,0,0,0,.5-.51V7a.5.5,0,0,0-.5-.51H6A.51.51,0,0,0,5.45,7v.91A.51.51,0,0,0,6,8.38ZM6,7h1v.75H6Z"/><path class="cls-2" d="M8.94,8.38h1.19a.51.51,0,0,0,.51-.51V7a.51.51,0,0,0-.51-.51H8.94A.51.51,0,0,0,8.43,7v.91a.51.51,0,0,0,.51.51ZM9,7h1v.75H9Z"/><path class="cls-2" d="M3,11h1.2a.5.5,0,0,0,.51-.5V9.61a.51.51,0,0,0-.51-.51H3a.5.5,0,0,0-.5.51v.92A.5.5,0,0,0,3,11Zm.09-1.34h1v.76h-1Z"/><path class="cls-2" d="M5.68,12.11H3a.56.56,0,0,0-.56.56v.81A.56.56,0,0,0,3,14H5.68a.56.56,0,0,0,.57-.56v-.81A.56.56,0,0,0,5.68,12.11Zm0,1.34H3.07V12.7H5.66Z"/><path class="cls-2" d="M6,11h1.2a.5.5,0,0,0,.5-.5V9.61a.5.5,0,0,0-.5-.51H6a.51.51,0,0,0-.51.51v.92A.5.5,0,0,0,6,11ZM6,9.69h1v.76H6Z"/><path class="cls-2" d="M8.94,11h1.19a.5.5,0,0,0,.51-.5V9.61a.51.51,0,0,0-.51-.51H8.94a.51.51,0,0,0-.51.51v.92a.5.5,0,0,0,.51.5ZM9,9.69h1v.76H9Z"/><path class="cls-2" d="M15,10.78a.55.55,0,0,0-.55-.54h-1.2a.54.54,0,0,0-.54.54v1a.55.55,0,0,0,.54.55h1.2a.55.55,0,0,0,.55-.55Zm-.59.91H13.27v-.86h1.11Z"/><path class="cls-2" d="M14.42,13h-1.2a.54.54,0,0,0-.54.54v1a.54.54,0,0,0,.54.54h1.2a.55.55,0,0,0,.55-.54v-1A.55.55,0,0,0,14.42,13Zm0,1.45H13.27v-.86h1.11Z"/><path class="cls-2" d="M17.71,10.78a.54.54,0,0,0-.54-.54H16a.54.54,0,0,0-.54.54v1a.55.55,0,0,0,.54.55h1.21a.55.55,0,0,0,.54-.55Zm-.59.91H16v-.86h1.11Z"/><path class="cls-2" d="M17.17,13H16a.54.54,0,0,0-.54.54v1A.54.54,0,0,0,16,15h1.21a.55.55,0,0,0,.54-.54v-1A.54.54,0,0,0,17.17,13Zm-.05,1.45H16v-.86h1.11Z"/></svg>