<?xml version="1.0" encoding="utf-8"?>
<!-- Generator: Adobe Illustrator 24.3.0, SVG Export Plug-In . SVG Version: 6.00 Build 0)  -->
<svg version="1.1" id="Capa_1" xmlns="http://www.w3.org/2000/svg" xmlns:xlink="http://www.w3.org/1999/xlink" x="0px" y="0px"
	 viewBox="0 0 24 24" style="enable-background:new 0 0 24 24;" xml:space="preserve">
<style type="text/css">
	.st0{fill:#F6B944;}
	.st1{fill:#FCFCFC;}
</style>
<rect x="3.5" y="4" class="st0" width="2.4" height="9.3"/>
<path class="st1" d="M20,2H7C4.2,2,2,4.2,2,7v10c0,2.8,2.2,5,5,5h12c1.7,0,3-1.3,3-3s-1.3-3-3-3H6v2h13c0.6,0,1,0.4,1,1s-0.4,1-1,1
	H7c-1.7,0-3-1.3-3-3s1.3-3,3-3h13c1.1,0,2-0.9,2-2V4C22,2.9,21.1,2,20,2z M20,12H7c-1.1,0-2.2,0.4-3,1V7c0-1.7,1.3-3,3-3h13V12z"/>
<rect x="-16.1" y="5.8" class="st0" width="13.5" height="13.5"/>
</svg>
