<?xml version="1.0" encoding="utf-8"?>
<!-- Generator: Adobe Illustrator 24.3.0, SVG Export Plug-In . SVG Version: 6.00 Build 0)  -->
<svg version="1.1" id="Capa_1" xmlns="http://www.w3.org/2000/svg" xmlns:xlink="http://www.w3.org/1999/xlink" x="0px" y="0px"
	 viewBox="0 0 24 24" style="enable-background:new 0 0 24 24;" xml:space="preserve">
<style type="text/css">
	.st0{fill:#F6B944;}
	.st1{fill:#FFFFFF;}
</style>
<g>
	<polygon class="st0" points="6.7,20.2 4,18 4,6 6.7,6 	"/>
</g>
<path class="st1" d="M12,10c4,0,8-1.4,8-4s-4-4-8-4S4,3.4,4,6S8,10,12,10z"/>
<path class="st1" d="M4,10c0,2.6,4,4,8,4s8-1.4,8-4V8c0,2.6-4,4-8,4s-8-1.4-8-4V10z"/>
<path class="st1" d="M4,14c0,2.6,4,4,8,4s8-1.4,8-4v-2c0,2.6-4,4-8,4s-8-1.4-8-4V14z"/>
<path class="st1" d="M4,18c0,2.6,4,4,8,4s8-1.4,8-4v-2c0,2.6-4,4-8,4s-8-1.4-8-4V18z"/>
<rect x="-18.1" y="7.1" class="st0" width="13.5" height="13.5"/>
</svg>
