<?xml version="1.0" encoding="utf-8"?>
<!-- Generator: Adobe Illustrator 24.3.0, SVG Export Plug-In . SVG Version: 6.00 Build 0)  -->
<svg version="1.1" id="Capa_1" xmlns="http://www.w3.org/2000/svg" xmlns:xlink="http://www.w3.org/1999/xlink" x="0px" y="0px"
	 viewBox="0 0 24 24" style="enable-background:new 0 0 24 24;" xml:space="preserve">
<style type="text/css">
	.st0{fill:#F6B944;}
	.st1{fill:#FCFCFC;}
</style>
<rect x="4.5" y="3.4" class="st0" width="2.1" height="8.3"/>
<rect x="4.5" y="12.4" class="st0" width="2.1" height="8.3"/>
<path class="st1" d="M21,4c0-1.1-0.9-2-2-2H5C3.9,2,3,2.9,3,4v16c0,1.1,0.9,2,2,2h14c1.1,0,2-0.9,2-2V4z M5,4h14v7H5V4z M5,20v-7h14
	v7H5z"/>
<path class="st1" d="M14,7h-4V6H8v3h8V6h-2V7z M14,15v1h-4v-1H8v3h8v-3H14z"/>
<rect x="-15.5" y="3.4" class="st0" width="13.5" height="13.5"/>
</svg>
