<?xml version="1.0" encoding="utf-8"?>
<!-- Generator: Adobe Illustrator 24.3.0, SVG Export Plug-In . SVG Version: 6.00 Build 0)  -->
<svg version="1.1" id="Capa_1" xmlns="http://www.w3.org/2000/svg" xmlns:xlink="http://www.w3.org/1999/xlink" x="0px" y="0px"
	 viewBox="0 0 24 24" style="enable-background:new 0 0 24 24;" xml:space="preserve">
<style type="text/css">
	.st0{fill:#F6B944;}
	.st1{fill:#FCFCFC;}
</style>
<rect x="3.5" y="10.4" class="st0" width="1.9" height="9.5"/>
<rect x="9.6" y="3.5" class="st0" width="1.9" height="16.4"/>
<rect x="15.7" y="8.3" class="st0" width="1.9" height="11.6"/>
<path class="st1" d="M20,7h-4V4c0-1.1-0.9-2-2-2h-4C8.9,2,8,2.9,8,4v5H4c-1.1,0-2,0.9-2,2v9c0,0.6,0.4,1,1,1h6h6h6c0.6,0,1-0.4,1-1
	V9C22,7.9,21.1,7,20,7z M4,11h4v8H4V11z M10,10V4h4v4v11h-4V10z M20,19h-4V9h4V19z"/>
<rect x="27.7" y="8.6" class="st0" width="13.5" height="13.5"/>
</svg>
