<?xml version="1.0" encoding="utf-8"?>
<!-- Generator: Adobe Illustrator 24.3.0, SVG Export Plug-In . SVG Version: 6.00 Build 0)  -->
<svg version="1.1" id="Capa_1" xmlns="http://www.w3.org/2000/svg" xmlns:xlink="http://www.w3.org/1999/xlink" x="0px" y="0px"
	 viewBox="0 0 24 24" style="enable-background:new 0 0 24 24;" xml:space="preserve">
<style type="text/css">
	.st0{fill:#F6B944;}
	.st1{fill:#FCFCFC;}
</style>
<g>
	<path class="st0" d="M19.2,3.3c-0.2,0-0.3,0-0.4,0H8.3c-2.8,0-5,2.3-5,5v12.8h2.2v-2.3h0V8.3c0-1.5,1.2-2.8,2.8-2.8h10.5
		c0.2,0,0.3,0,0.4,0V3.3z"/>
</g>
<path class="st1" d="M16,2H8C4.7,2,2,4.7,2,8v13c0,0.6,0.4,1,1,1h13c3.3,0,6-2.7,6-6V8C22,4.7,19.3,2,16,2z M20,16c0,2.2-1.8,4-4,4
	H4V8c0-2.2,1.8-4,4-4h8c2.2,0,4,1.8,4,4V16z"/>
<path class="st1" d="M7,9h10v2H7V9z M7,13h7v2H7V13z"/>
<rect x="24.8" y="10.1" class="st0" width="13.5" height="13.5"/>
</svg>
