<?xml version="1.0" encoding="utf-8"?>
<!-- Generator: Adobe Illustrator 24.3.0, SVG Export Plug-In . SVG Version: 6.00 Build 0)  -->
<svg version="1.1" id="Capa_1" xmlns="http://www.w3.org/2000/svg" xmlns:xlink="http://www.w3.org/1999/xlink" x="0px" y="0px"
	 viewBox="0 0 24 24" style="enable-background:new 0 0 24 24;" xml:space="preserve">
<style type="text/css">
	.st0{fill:#FCFCFC;}
	.st1{fill:#F6B944;}
	.st2{fill:#C11626;}
	.st3{fill:#6F6F6F;}
	.st4{fill:#333333;}
	.st5{fill:#7CB846;}
	.st6{fill:#FF9811;}
	.st7{fill:#00A0DB;}
</style>
<path class="st0" d="M21.8,8.4L21.8,8.4L21.8,8.4L21.8,8.4L21.8,8.4L21.8,8.4c-0.1-0.1-0.1-0.2-0.2-0.2l-9.2-6.1
	c-0.3-0.2-0.6-0.2-0.9,0L2.4,8.2C2.3,8.3,2.2,8.4,2.1,8.4C2,8.6,2,8.7,2,8.9v6.2c0,0.2,0,0.3,0.1,0.4l0,0l0,0l0,0l0,0l0,0l0,0l0,0
	l0,0c0.1,0.1,0.1,0.2,0.2,0.2l9.2,6.1c0.1,0.1,0.3,0.1,0.4,0.1c0.2,0,0.3-0.1,0.4-0.1l9.2-6.1c0.1-0.1,0.2-0.1,0.2-0.2
	c0.1-0.1,0.1-0.3,0.1-0.5V8.9C22,8.7,21.9,8.6,21.8,8.4z M12.8,4.3l7,4.6L16.6,11l-3.8-2.5V4.3L12.8,4.3z M11.2,4.3v4.2L7.4,11
	L4.2,8.9L11.2,4.3z M3.6,10.4L6,12l-2.4,1.6V10.4z M11.2,19.7l-7-4.6L7.4,13l3.8,2.5V19.7z M12,14l-3.1-2L12,9.8l3.1,2.1L12,14z
	 M12.8,19.7v-4.3l3.8-2.5l3.2,2.2L12.8,19.7z M20.4,13.6L18,12l2.4-1.6V13.6z"/>
<g>
	<polygon class="st1" points="3.6,10.4 4.8,11.2 4.8,12.8 3.6,13.6 	"/>
	<polygon class="st1" points="5.3,9.6 11.2,5.8 11.2,4.3 4.2,8.9 	"/>
	<polygon class="st1" points="4.2,15.1 11.2,19.7 11.2,18.2 5.4,14.3 	"/>
</g>
<g>
	<rect x="26.4" y="26.8" class="st2" width="13.5" height="13.5"/>
	<rect x="41.7" y="26.8" class="st3" width="13.5" height="13.5"/>
	<rect x="41.7" y="9.6" class="st4" width="13.5" height="13.5"/>
	<rect x="-20.3" y="26.8" class="st5" width="13.5" height="13.5"/>
	<rect x="-4.1" y="26.8" class="st1" width="13.5" height="13.5"/>
	<rect x="-4.1" y="43.1" class="st6" width="13.5" height="13.5"/>
	<rect x="11.2" y="26.8" class="st7" width="13.5" height="13.5"/>
</g>
</svg>
