<?xml version="1.0" encoding="utf-8"?>
<!-- Generator: Adobe Illustrator 24.3.0, SVG Export Plug-In . SVG Version: 6.00 Build 0)  -->
<svg version="1.1" id="Capa_1" xmlns="http://www.w3.org/2000/svg" xmlns:xlink="http://www.w3.org/1999/xlink" x="0px" y="0px"
	 viewBox="0 0 24 24" style="enable-background:new 0 0 24 24;" xml:space="preserve">
<style type="text/css">
	.st0{fill:#F6B944;}
	.st1{fill:#FCFCFC;}
</style>
<rect x="5.3" y="3.5" class="st0" width="2.2" height="17"/>
<path class="st1" d="M19.9,8.7C19.9,8.6,19.9,8.6,19.9,8.7c-0.1-0.2-0.1-0.3-0.2-0.4l-6-6c-0.1-0.1-0.2-0.1-0.3-0.2c0,0-0.1,0-0.1,0
	c-0.1,0-0.2,0-0.3-0.1c0,0,0,0-0.1,0H6C4.9,2,4,2.9,4,4v16c0,1.1,0.9,2,2,2h12c1.1,0,2-0.9,2-2V9c0,0,0,0,0-0.1
	C20,8.9,20,8.8,19.9,8.7z M16.6,8H14V5.4L16.6,8z M6,20V4h6v5c0,0.6,0.4,1,1,1h5l0,10H6z"/>
<rect x="1.3" y="25.5" class="st0" width="13.5" height="13.5"/>
</svg>
