<?xml version="1.0" encoding="utf-8"?>
<!-- Generator: Adobe Illustrator 24.3.0, SVG Export Plug-In . SVG Version: 6.00 Build 0)  -->
<svg version="1.1" id="Capa_1" xmlns="http://www.w3.org/2000/svg" xmlns:xlink="http://www.w3.org/1999/xlink" x="0px" y="0px"
	 viewBox="0 0 24 24" style="enable-background:new 0 0 24 24;" xml:space="preserve">
<style type="text/css">
	.st0{fill:#F6B944;}
	.st1{fill:#FCFCFC;}
</style>
<rect x="4" y="14.6" class="st0" width="4.3" height="1.4"/>
<rect x="6.9" y="15.6" class="st0" width="1.4" height="2.9"/>
<rect x="3.2" y="7.2" class="st0" width="2.1" height="9.4"/>
<path class="st1" d="M5,18v3.8l1.5-0.9l0,0l4.8-2.9H16c1.1,0,2-0.9,2-2V8c0-1.1-0.9-2-2-2H4C2.9,6,2,6.9,2,8v8c0,1.1,0.9,2,2,2H5z
	 M4,8h12v8h-5.3L7,18.2V16H4V8z"/>
<path class="st1" d="M20,2h-1h-2H8C6.9,2,6,2.9,6,4h10.6H18c1.1,0,2,0.9,2,2v1.4V12v2c1.1,0,2-0.9,2-2V7V5V4C22,2.9,21.1,2,20,2z"/>
<rect x="-14.6" y="6.8" class="st0" width="13.5" height="13.5"/>
</svg>
