<svg id="Capa_1" data-name="Capa 1" xmlns="http://www.w3.org/2000/svg" viewBox="0 0 817.05 121.32"><defs><style>.cls-1,.cls-8{opacity:0.3;}.cls-2{fill:#333;}.cls-3{fill:#c62636;}.cls-4{opacity:0.54;}.cls-5{fill:#fff;}.cls-6{fill:#d33c52;}.cls-7,.cls-8{fill:none;stroke:#fff;stroke-linecap:round;stroke-linejoin:round;stroke-width:2px;}</style></defs><g class="cls-1"><path d="M11,28h1.88V17.77c0-2.76.07-4.91.22-6.48a9.41,9.41,0,0,1,1.22-4,7.58,7.58,0,0,1,2.88-2.85,8.14,8.14,0,0,1,4.19-1.1,8.46,8.46,0,0,1,5.88,2.44,7.21,7.21,0,0,1,2.22,4,36.25,36.25,0,0,1,.47,6.66V28h6.26a8,8,0,0,1,5.54,1.72,5.68,5.68,0,0,1,1.9,4.41A4.93,4.93,0,0,1,40.89,39a17.61,17.61,0,0,1-7.79,1.38H29.91V71.77a50.51,50.51,0,0,0,.28,6.16,6.28,6.28,0,0,0,1.5,3.5,5.14,5.14,0,0,0,4,1.35,21.54,21.54,0,0,0,4.06-.53,20.68,20.68,0,0,1,4-.53,5.14,5.14,0,0,1,3.72,1.65,5.57,5.57,0,0,1,1.66,4.1c0,2.76-1.5,4.86-4.51,6.32S37.29,96,31.66,96q-8,0-12.14-2.69a12.49,12.49,0,0,1-5.41-7.44,50.83,50.83,0,0,1-1.28-12.71V40.36H10.58A8.14,8.14,0,0,1,4.94,38.6,5.71,5.71,0,0,1,3,34.16a5.52,5.52,0,0,1,2-4.41A8.89,8.89,0,0,1,11,28Z"/><path d="M95.88,65.45H62.47a22.68,22.68,0,0,0,2.34,10.26,16.17,16.17,0,0,0,6.07,6.69,16,16,0,0,0,8.36,2.26,20.48,20.48,0,0,0,5.6-.72,18.35,18.35,0,0,0,4.91-2.25,39.1,39.1,0,0,0,4.38-3.29c1.33-1.17,3.06-2.75,5.19-4.76a5.63,5.63,0,0,1,3.76-1.12A6.16,6.16,0,0,1,107.33,74,5.12,5.12,0,0,1,109,78a11.14,11.14,0,0,1-1.82,5.42,21.55,21.55,0,0,1-5.47,5.94,31.38,31.38,0,0,1-9.2,4.73A39.67,39.67,0,0,1,79.74,96Q63.29,96,54.15,86.6T45,61.13a42.54,42.54,0,0,1,2.25-14.05A30.9,30.9,0,0,1,53.83,36a28.55,28.55,0,0,1,10.64-7.11,38.36,38.36,0,0,1,14-2.47q10,0,17.17,4.23a27.63,27.63,0,0,1,10.73,10.92A28.68,28.68,0,0,1,110,55.19q0,6.44-3.69,8.35T95.88,65.45Zm-33.41-9.7h31Q92.81,47,88.72,42.64a14.16,14.16,0,0,0-10.8-4.35A13.68,13.68,0,0,0,67.44,42.7Q63.34,47.11,62.47,55.75Z"/><path d="M174,62.51V85.22q0,5.39-2.44,8.07A8.28,8.28,0,0,1,165.1,96a8,8,0,0,1-6.28-2.69q-2.41-2.69-2.41-8.07V58A87.84,87.84,0,0,0,156,48a10.84,10.84,0,0,0-2.38-5.85c-1.29-1.52-3.34-2.28-6.13-2.28q-8.39,0-11,5.75t-2.66,16.52V85.22c0,3.55-.81,6.23-2.41,8A8.07,8.07,0,0,1,125,96a8.15,8.15,0,0,1-6.35-2.72q-2.48-2.72-2.48-8V36.35q0-4.82,2.23-7.32a7.43,7.43,0,0,1,5.85-2.5,8,8,0,0,1,5.85,2.34,8.79,8.79,0,0,1,2.34,6.48V37A29.64,29.64,0,0,1,142,29.16a25.1,25.1,0,0,1,11.27-2.51,22.53,22.53,0,0,1,11.07,2.57A20.05,20.05,0,0,1,171.92,37a29.61,29.61,0,0,1,9.27-7.79,23.61,23.61,0,0,1,10.95-2.54,24.88,24.88,0,0,1,12.07,2.76,17.48,17.48,0,0,1,7.57,7.88Q214,41.93,214,51.87V85.22q0,5.39-2.44,8.07A8.24,8.24,0,0,1,205.09,96a8.15,8.15,0,0,1-6.35-2.72q-2.48-2.72-2.47-8V56.5a66.22,66.22,0,0,0-.47-8.82,10.15,10.15,0,0,0-2.54-5.57q-2.06-2.25-6.26-2.25a11.4,11.4,0,0,0-6.41,2,13.54,13.54,0,0,0-4.72,5.38Q174,51.56,174,62.51Z"/><path d="M239.15,36.1v2.07a33.43,33.43,0,0,1,10-8.73,24.44,24.44,0,0,1,11.76-2.79,27.26,27.26,0,0,1,14.52,4.07,28.08,28.08,0,0,1,10.48,11.89,41.59,41.59,0,0,1,3.85,18.52,45.26,45.26,0,0,1-2.22,14.49,32.57,32.57,0,0,1-6.11,11.07,26.54,26.54,0,0,1-9.16,6.88A27,27,0,0,1,260.92,96,23.77,23.77,0,0,1,248.63,93a35.1,35.1,0,0,1-9.48-8.63v25.65q0,11.26-8.2,11.26-4.81,0-6.38-2.91c-1-1.93-1.57-4.76-1.57-8.47V36.23q0-4.89,2.13-7.29A7.36,7.36,0,0,1,231,26.53,7.66,7.66,0,0,1,236.86,29C238.38,30.65,239.15,33,239.15,36.1Zm33.47,24.84a29.63,29.63,0,0,0-2.06-11.6,17,17,0,0,0-5.73-7.45,13.69,13.69,0,0,0-8.1-2.6,15.2,15.2,0,0,0-11.92,5.57Q240,50.43,240,61.26q0,10.2,4.82,15.86a15.08,15.08,0,0,0,12,5.66,13.69,13.69,0,0,0,7.88-2.47,17,17,0,0,0,5.82-7.42A29.39,29.39,0,0,0,272.62,60.94Z"/><path d="M351.29,73.64a19.83,19.83,0,0,1-13.6,19.75A45.64,45.64,0,0,1,321.32,96a40.05,40.05,0,0,1-15.77-2.81q-6.57-2.82-9.69-7a14.17,14.17,0,0,1-3.13-8.48,6.55,6.55,0,0,1,2-4.82,6.87,6.87,0,0,1,5.07-2,6,6,0,0,1,4.13,1.31,14.62,14.62,0,0,1,2.75,3.69A18.65,18.65,0,0,0,313,82.65q3.66,2.26,10,2.26a14.38,14.38,0,0,0,8.42-2.29q3.28-2.28,3.28-5.22a7.12,7.12,0,0,0-3.41-6.57q-3.4-2.07-11.23-3.94a93.75,93.75,0,0,1-14.36-4.6,23.81,23.81,0,0,1-8.86-6.35,14.56,14.56,0,0,1-3.31-9.7,17.12,17.12,0,0,1,3.06-9.7,21.06,21.06,0,0,1,9-7.29A34.68,34.68,0,0,1,320,26.53a47.79,47.79,0,0,1,11.92,1.37,29.69,29.69,0,0,1,8.82,3.7,18.09,18.09,0,0,1,5.38,5.13,10,10,0,0,1,1.85,5.5,6.38,6.38,0,0,1-2,4.82,7.82,7.82,0,0,1-5.6,1.88,6.87,6.87,0,0,1-4.48-1.5,29.4,29.4,0,0,1-4.22-4.51,15.38,15.38,0,0,0-4.57-4,14.4,14.4,0,0,0-7.13-1.5,13.94,13.94,0,0,0-7.7,2q-3.06,2-3.06,4.91a5.33,5.33,0,0,0,2.25,4.41,18.56,18.56,0,0,0,6.07,2.85q3.81,1.13,10.51,2.75a56,56,0,0,1,13,4.63,21.54,21.54,0,0,1,7.64,6.35A14.09,14.09,0,0,1,351.29,73.64Z"/><path d="M406.25,65.45H372.84a22.55,22.55,0,0,0,2.35,10.26,15.71,15.71,0,0,0,14.42,9,20.48,20.48,0,0,0,5.6-.72,18.35,18.35,0,0,0,4.91-2.25,37.35,37.35,0,0,0,4.38-3.29c1.34-1.17,3.07-2.75,5.19-4.76a5.63,5.63,0,0,1,3.76-1.12A6.16,6.16,0,0,1,417.7,74,5.12,5.12,0,0,1,419.33,78a11.22,11.22,0,0,1-1.81,5.42A21.76,21.76,0,0,1,412,89.38a31.38,31.38,0,0,1-9.2,4.73A39.62,39.62,0,0,1,390.11,96q-16.46,0-25.59-9.38t-9.14-25.47a42.54,42.54,0,0,1,2.25-14.05A31.19,31.19,0,0,1,364.2,36a28.55,28.55,0,0,1,10.64-7.11,38.36,38.36,0,0,1,14-2.47q10,0,17.17,4.23a27.63,27.63,0,0,1,10.73,10.92,28.68,28.68,0,0,1,3.57,13.64q0,6.44-3.69,8.35T406.25,65.45Zm-33.41-9.7h31q-.63-8.76-4.72-13.11a14.14,14.14,0,0,0-10.8-4.35,13.68,13.68,0,0,0-10.48,4.41Q373.72,47.11,372.84,55.75Z"/><path d="M443.06,36V38a30,30,0,0,1,9.86-8.73,26.31,26.31,0,0,1,12.29-2.78,24.55,24.55,0,0,1,12.08,2.94,18.64,18.64,0,0,1,7.95,8.32,20.11,20.11,0,0,1,2.19,6.76,70.72,70.72,0,0,1,.5,9.26V85.6q0,5.13-2.35,7.75a7.77,7.77,0,0,1-6.1,2.63,7.85,7.85,0,0,1-6.19-2.69c-1.59-1.79-2.38-4.36-2.38-7.69V57.13c0-5.64-.78-9.94-2.35-12.93s-4.68-4.47-9.35-4.47a13.86,13.86,0,0,0-8.32,2.72,15.65,15.65,0,0,0-5.51,7.48q-1.26,3.81-1.25,14.27V85.6c0,3.46-.81,6.06-2.41,7.79A8.11,8.11,0,0,1,435.49,96a7.73,7.73,0,0,1-6.07-2.69c-1.58-1.79-2.37-4.36-2.37-7.69V36.23c0-3.26.7-5.69,2.12-7.29A7.36,7.36,0,0,1,435,26.53a7.9,7.9,0,0,1,4.07,1.06A7.67,7.67,0,0,1,442,30.78,11.26,11.26,0,0,1,443.06,36Z"/><path d="M552.77,73.64a19.82,19.82,0,0,1-13.61,19.75A45.58,45.58,0,0,1,522.8,96,40.05,40.05,0,0,1,507,93.17q-6.57-2.82-9.7-7a14.23,14.23,0,0,1-3.13-8.48,6.56,6.56,0,0,1,2-4.82,6.87,6.87,0,0,1,5.07-2,6,6,0,0,1,4.13,1.31,14.86,14.86,0,0,1,2.75,3.69,18.65,18.65,0,0,0,6.29,6.82q3.66,2.26,10,2.26a14.35,14.35,0,0,0,8.41-2.29q3.28-2.28,3.29-5.22a7.12,7.12,0,0,0-3.41-6.57q-3.42-2.07-11.23-3.94a93.38,93.38,0,0,1-14.36-4.6,23.73,23.73,0,0,1-8.86-6.35,14.56,14.56,0,0,1-3.31-9.7,17.12,17.12,0,0,1,3.06-9.7,21.09,21.09,0,0,1,9-7.29,34.73,34.73,0,0,1,14.43-2.72,47.79,47.79,0,0,1,11.92,1.37,29.69,29.69,0,0,1,8.82,3.7,18.09,18.09,0,0,1,5.38,5.13,10,10,0,0,1,1.85,5.5,6.35,6.35,0,0,1-2,4.82,7.8,7.8,0,0,1-5.6,1.88,6.86,6.86,0,0,1-4.47-1.5,29.4,29.4,0,0,1-4.22-4.51,15.51,15.51,0,0,0-4.57-4,14.4,14.4,0,0,0-7.13-1.5,13.91,13.91,0,0,0-7.7,2c-2,1.31-3.07,3-3.07,4.91A5.31,5.31,0,0,0,513,48.71a18.56,18.56,0,0,0,6.07,2.85q3.81,1.13,10.51,2.75a56.14,56.14,0,0,1,13,4.63,21.63,21.63,0,0,1,7.64,6.35A14.09,14.09,0,0,1,552.77,73.64Z"/><path d="M607.73,65.45H574.32a22.68,22.68,0,0,0,2.34,10.26,16.17,16.17,0,0,0,6.07,6.69,16,16,0,0,0,8.36,2.26,20.48,20.48,0,0,0,5.6-.72,18.49,18.49,0,0,0,4.91-2.25A39.1,39.1,0,0,0,606,78.4c1.33-1.17,3.06-2.75,5.19-4.76a5.63,5.63,0,0,1,3.76-1.12A6.16,6.16,0,0,1,619.18,74,5.15,5.15,0,0,1,620.81,78,11.14,11.14,0,0,1,619,83.44a21.55,21.55,0,0,1-5.47,5.94,31.38,31.38,0,0,1-9.2,4.73A39.67,39.67,0,0,1,591.59,96Q575.12,96,566,86.6t-9.13-25.47a42.54,42.54,0,0,1,2.25-14.05A30.9,30.9,0,0,1,565.68,36a28.55,28.55,0,0,1,10.64-7.11,38.3,38.3,0,0,1,14-2.47q10,0,17.18,4.23a27.69,27.69,0,0,1,10.73,10.92,28.68,28.68,0,0,1,3.57,13.64q0,6.44-3.69,8.35T607.73,65.45Zm-33.41-9.7h31q-.63-8.76-4.72-13.11a14.17,14.17,0,0,0-10.8-4.35,13.68,13.68,0,0,0-10.48,4.41Q575.19,47.11,574.32,55.75Z"/><path d="M673.66,79.65h32.66q4.88,0,7.45,2a6.54,6.54,0,0,1,2.56,5.45,7.26,7.26,0,0,1-2,5.19c-1.36,1.42-3.41,2.13-6.17,2.13h-46a10,10,0,0,1-7.32-2.6,8.3,8.3,0,0,1-2.63-6.1,15.45,15.45,0,0,1,1.69-6,21.37,21.37,0,0,1,3.69-5.85q8.32-8.64,15-14.8A99.4,99.4,0,0,1,682.1,51a55.71,55.71,0,0,0,8.55-7.29,29.12,29.12,0,0,0,5.19-7.5,17.85,17.85,0,0,0,1.78-7.54,13.63,13.63,0,0,0-1.91-7.17,13.25,13.25,0,0,0-5.19-4.91,15,15,0,0,0-7.16-1.75q-8.21,0-12.89,7.19a31.15,31.15,0,0,0-2.1,5.13,21.37,21.37,0,0,1-3.32,6.45,6.59,6.59,0,0,1-5.41,2.25,7,7,0,0,1-5.19-2.06,7.62,7.62,0,0,1-2.07-5.64,23.65,23.65,0,0,1,1.94-9,25.86,25.86,0,0,1,5.79-8.51,28.86,28.86,0,0,1,9.76-6.16,37.53,37.53,0,0,1,13.86-2.34,40.09,40.09,0,0,1,16.33,3,24.57,24.57,0,0,1,7.7,5.5,25.92,25.92,0,0,1,7,17.65,26.75,26.75,0,0,1-3.85,14.11,44.4,44.4,0,0,1-7.85,10q-4,3.6-13.43,11.29T676.72,75.58A36.17,36.17,0,0,0,673.66,79.65Z"/><path d="M734.18,96a9.72,9.72,0,0,1-6.69-2.5,8.88,8.88,0,0,1-2.82-7,9.1,9.1,0,0,1,2.69-6.57A8.94,8.94,0,0,1,734,77.15a9.3,9.3,0,0,1,6.73,2.72,9.65,9.65,0,0,1,0,13.58A9.39,9.39,0,0,1,734.18,96Z"/><path d="M817.05,49.43a107.69,107.69,0,0,1-1.25,17.64,41.17,41.17,0,0,1-4.63,13.39,30.71,30.71,0,0,1-11,11.39,29.89,29.89,0,0,1-32.06-1.37,32.69,32.69,0,0,1-11.36-14.9,55.89,55.89,0,0,1-2.85-11.48A96.2,96.2,0,0,1,753,50.49a130.21,130.21,0,0,1,1-17,56.33,56.33,0,0,1,3.12-13A29.44,29.44,0,0,1,767.84,6.72,29.49,29.49,0,0,1,784.64,2a31.32,31.32,0,0,1,11.7,2.1,26.64,26.64,0,0,1,9.23,6.13,35.15,35.15,0,0,1,6.72,10Q817,30.53,817.05,49.43ZM799.9,48.18a105,105,0,0,0-1.37-18.74q-1.38-7.29-4.63-11a11.35,11.35,0,0,0-9-3.72q-8.26,0-11.49,8.32t-3.22,25.66A110,110,0,0,0,771.56,68q1.38,7.51,4.63,11.36A12.08,12.08,0,0,0,794,79.15q3.26-4,4.57-11.45A116.22,116.22,0,0,0,799.9,48.18Z"/></g><path class="cls-2" d="M8,26H9.83V15.77c0-2.76.07-4.91.22-6.48a9.41,9.41,0,0,1,1.22-4,7.58,7.58,0,0,1,2.88-2.85,8.14,8.14,0,0,1,4.19-1.1,8.46,8.46,0,0,1,5.88,2.44,7.21,7.21,0,0,1,2.22,4,36.25,36.25,0,0,1,.47,6.66V26h6.26a8,8,0,0,1,5.54,1.72,5.68,5.68,0,0,1,1.9,4.41A4.93,4.93,0,0,1,37.89,37a17.61,17.61,0,0,1-7.79,1.38H26.91V69.77a50.51,50.51,0,0,0,.28,6.16,6.28,6.28,0,0,0,1.5,3.5,5.14,5.14,0,0,0,4,1.35,21.54,21.54,0,0,0,4.06-.53,20.68,20.68,0,0,1,4-.53,5.14,5.14,0,0,1,3.72,1.65,5.57,5.57,0,0,1,1.66,4.1c0,2.76-1.5,4.86-4.51,6.32S34.29,94,28.66,94q-8,0-12.14-2.69a12.49,12.49,0,0,1-5.41-7.44A50.83,50.83,0,0,1,9.83,71.14V38.36H7.58A8.14,8.14,0,0,1,1.94,36.6,5.71,5.71,0,0,1,0,32.16a5.52,5.52,0,0,1,2-4.41A8.89,8.89,0,0,1,8,26Z"/><path class="cls-2" d="M92.88,63.45H59.47a22.68,22.68,0,0,0,2.34,10.26,16.17,16.17,0,0,0,6.07,6.69,16,16,0,0,0,8.36,2.26,20.48,20.48,0,0,0,5.6-.72,18.35,18.35,0,0,0,4.91-2.25,39.1,39.1,0,0,0,4.38-3.29c1.33-1.17,3.06-2.75,5.19-4.76a5.63,5.63,0,0,1,3.76-1.12A6.16,6.16,0,0,1,104.33,72,5.12,5.12,0,0,1,106,76a11.14,11.14,0,0,1-1.82,5.42,21.55,21.55,0,0,1-5.47,5.94,31.38,31.38,0,0,1-9.2,4.73A39.67,39.67,0,0,1,76.74,94Q60.29,94,51.15,84.6T42,59.13a42.54,42.54,0,0,1,2.25-14.05A30.9,30.9,0,0,1,50.83,34a28.55,28.55,0,0,1,10.64-7.11,38.36,38.36,0,0,1,14-2.47q10,0,17.17,4.23a27.63,27.63,0,0,1,10.73,10.92A28.68,28.68,0,0,1,107,53.19q0,6.44-3.69,8.35T92.88,63.45Zm-33.41-9.7h31Q89.81,45,85.72,40.64a14.16,14.16,0,0,0-10.8-4.35A13.68,13.68,0,0,0,64.44,40.7Q60.35,45.11,59.47,53.75Z"/><path class="cls-2" d="M171,60.51V83.22q0,5.39-2.44,8.07A8.28,8.28,0,0,1,162.1,94a8,8,0,0,1-6.28-2.69q-2.41-2.69-2.41-8.07V56A87.84,87.84,0,0,0,153,46a10.84,10.84,0,0,0-2.38-5.85c-1.29-1.52-3.34-2.28-6.13-2.28q-8.39,0-11,5.75t-2.66,16.52V83.22c0,3.55-.81,6.23-2.41,8A8.07,8.07,0,0,1,122,94a8.15,8.15,0,0,1-6.35-2.72q-2.48-2.72-2.48-8V34.35q0-4.82,2.23-7.32a7.43,7.43,0,0,1,5.85-2.5,8,8,0,0,1,5.85,2.34,8.79,8.79,0,0,1,2.34,6.48V35A29.64,29.64,0,0,1,139,27.16a25.1,25.1,0,0,1,11.27-2.51,22.53,22.53,0,0,1,11.07,2.57A20.05,20.05,0,0,1,168.92,35a29.61,29.61,0,0,1,9.27-7.79,23.61,23.61,0,0,1,10.95-2.54,24.88,24.88,0,0,1,12.07,2.76,17.48,17.48,0,0,1,7.57,7.88Q211,39.93,211,49.87V83.22q0,5.39-2.44,8.07A8.24,8.24,0,0,1,202.09,94a8.15,8.15,0,0,1-6.35-2.72q-2.48-2.72-2.47-8V54.5a66.22,66.22,0,0,0-.47-8.82,10.15,10.15,0,0,0-2.54-5.57q-2.06-2.25-6.26-2.25a11.4,11.4,0,0,0-6.41,2,13.54,13.54,0,0,0-4.72,5.38Q171,49.56,171,60.51Z"/><path class="cls-2" d="M236.15,34.1v2.07a33.43,33.43,0,0,1,10-8.73,24.44,24.44,0,0,1,11.76-2.79,27.26,27.26,0,0,1,14.52,4.07,28.08,28.08,0,0,1,10.48,11.89,41.59,41.59,0,0,1,3.85,18.52,45.26,45.26,0,0,1-2.22,14.49,32.57,32.57,0,0,1-6.11,11.07,26.54,26.54,0,0,1-9.16,6.88A27,27,0,0,1,257.92,94,23.77,23.77,0,0,1,245.63,91a35.1,35.1,0,0,1-9.48-8.63v25.65q0,11.26-8.2,11.26-4.81,0-6.38-2.91c-1-1.93-1.57-4.76-1.57-8.47V34.23q0-4.89,2.13-7.29A7.36,7.36,0,0,1,228,24.53,7.66,7.66,0,0,1,233.86,27C235.38,28.65,236.15,31,236.15,34.1Zm33.47,24.84a29.63,29.63,0,0,0-2.06-11.6,17,17,0,0,0-5.73-7.45,13.69,13.69,0,0,0-8.1-2.6,15.2,15.2,0,0,0-11.92,5.57Q237,48.43,237,59.26q0,10.2,4.82,15.86a15.08,15.08,0,0,0,11.95,5.66,13.69,13.69,0,0,0,7.88-2.47,17,17,0,0,0,5.82-7.42A29.39,29.39,0,0,0,269.62,58.94Z"/><path class="cls-3" d="M348.29,71.64a19.83,19.83,0,0,1-13.6,19.75A45.64,45.64,0,0,1,318.32,94a40.05,40.05,0,0,1-15.77-2.81q-6.57-2.82-9.69-7a14.17,14.17,0,0,1-3.13-8.48,6.55,6.55,0,0,1,2-4.82,6.87,6.87,0,0,1,5.07-2,6,6,0,0,1,4.13,1.31,14.62,14.62,0,0,1,2.75,3.69A18.65,18.65,0,0,0,310,80.65q3.66,2.26,10,2.26a14.38,14.38,0,0,0,8.42-2.29q3.28-2.28,3.28-5.22a7.12,7.12,0,0,0-3.41-6.57q-3.4-2.07-11.23-3.94a93.75,93.75,0,0,1-14.36-4.6,23.81,23.81,0,0,1-8.86-6.35,14.56,14.56,0,0,1-3.31-9.7,17.12,17.12,0,0,1,3.06-9.7,21.06,21.06,0,0,1,9-7.29A34.68,34.68,0,0,1,317,24.53a47.79,47.79,0,0,1,11.92,1.37,29.69,29.69,0,0,1,8.82,3.7,18.09,18.09,0,0,1,5.38,5.13,10,10,0,0,1,1.85,5.5,6.38,6.38,0,0,1-2,4.82,7.82,7.82,0,0,1-5.6,1.88,6.87,6.87,0,0,1-4.48-1.5,29.4,29.4,0,0,1-4.22-4.51,15.38,15.38,0,0,0-4.57-4,14.4,14.4,0,0,0-7.13-1.5,13.94,13.94,0,0,0-7.7,2q-3.06,2-3.06,4.91a5.33,5.33,0,0,0,2.25,4.41,18.56,18.56,0,0,0,6.07,2.85q3.81,1.13,10.51,2.75a56,56,0,0,1,13,4.63,21.54,21.54,0,0,1,7.64,6.35A14.09,14.09,0,0,1,348.29,71.64Z"/><path class="cls-3" d="M403.25,63.45H369.84a22.55,22.55,0,0,0,2.35,10.26,15.71,15.71,0,0,0,14.42,9,20.48,20.48,0,0,0,5.6-.72,18.35,18.35,0,0,0,4.91-2.25,37.35,37.35,0,0,0,4.38-3.29c1.34-1.17,3.07-2.75,5.19-4.76a5.63,5.63,0,0,1,3.76-1.12A6.16,6.16,0,0,1,414.7,72,5.12,5.12,0,0,1,416.33,76a11.22,11.22,0,0,1-1.81,5.42A21.76,21.76,0,0,1,409,87.38a31.38,31.38,0,0,1-9.2,4.73A39.62,39.62,0,0,1,387.11,94q-16.46,0-25.59-9.38t-9.14-25.47a42.54,42.54,0,0,1,2.25-14.05A31.19,31.19,0,0,1,361.2,34a28.55,28.55,0,0,1,10.64-7.11,38.36,38.36,0,0,1,14-2.47q10,0,17.17,4.23a27.63,27.63,0,0,1,10.73,10.92,28.68,28.68,0,0,1,3.57,13.64q0,6.44-3.69,8.35T403.25,63.45Zm-33.41-9.7h31q-.63-8.76-4.72-13.11a14.14,14.14,0,0,0-10.8-4.35,13.68,13.68,0,0,0-10.48,4.41Q370.72,45.11,369.84,53.75Z"/><path class="cls-3" d="M440.06,34V36a30,30,0,0,1,9.86-8.73,26.31,26.31,0,0,1,12.29-2.78,24.55,24.55,0,0,1,12.08,2.94,18.64,18.64,0,0,1,7.95,8.32,20.11,20.11,0,0,1,2.19,6.76,70.72,70.72,0,0,1,.5,9.26V83.6q0,5.13-2.35,7.75a7.77,7.77,0,0,1-6.1,2.63,7.85,7.85,0,0,1-6.19-2.69c-1.59-1.79-2.38-4.36-2.38-7.69V55.13c0-5.64-.78-9.94-2.35-12.93s-4.68-4.47-9.35-4.47a13.86,13.86,0,0,0-8.32,2.72,15.65,15.65,0,0,0-5.51,7.48q-1.26,3.81-1.25,14.27V83.6c0,3.46-.81,6.06-2.41,7.79A8.11,8.11,0,0,1,432.49,94a7.73,7.73,0,0,1-6.07-2.69c-1.58-1.79-2.37-4.36-2.37-7.69V34.23c0-3.26.7-5.69,2.12-7.29A7.36,7.36,0,0,1,432,24.53a7.9,7.9,0,0,1,4.07,1.06A7.67,7.67,0,0,1,439,28.78,11.26,11.26,0,0,1,440.06,34Z"/><path class="cls-3" d="M549.77,71.64a19.82,19.82,0,0,1-13.61,19.75A45.58,45.58,0,0,1,519.8,94,40.05,40.05,0,0,1,504,91.17q-6.57-2.82-9.7-7a14.23,14.23,0,0,1-3.13-8.48,6.56,6.56,0,0,1,2-4.82,6.87,6.87,0,0,1,5.07-2,6,6,0,0,1,4.13,1.31,14.86,14.86,0,0,1,2.75,3.69,18.65,18.65,0,0,0,6.29,6.82q3.66,2.26,10,2.26a14.35,14.35,0,0,0,8.41-2.29q3.28-2.28,3.29-5.22a7.12,7.12,0,0,0-3.41-6.57q-3.42-2.07-11.23-3.94a93.38,93.38,0,0,1-14.36-4.6,23.73,23.73,0,0,1-8.86-6.35,14.56,14.56,0,0,1-3.31-9.7,17.12,17.12,0,0,1,3.06-9.7,21.09,21.09,0,0,1,9-7.29,34.73,34.73,0,0,1,14.43-2.72,47.79,47.79,0,0,1,11.92,1.37,29.69,29.69,0,0,1,8.82,3.7,18.09,18.09,0,0,1,5.38,5.13,10,10,0,0,1,1.85,5.5,6.35,6.35,0,0,1-2,4.82,7.8,7.8,0,0,1-5.6,1.88,6.86,6.86,0,0,1-4.47-1.5,29.4,29.4,0,0,1-4.22-4.51,15.51,15.51,0,0,0-4.57-4,14.4,14.4,0,0,0-7.13-1.5,13.91,13.91,0,0,0-7.7,2c-2,1.31-3.07,3-3.07,4.91A5.31,5.31,0,0,0,510,46.71a18.56,18.56,0,0,0,6.07,2.85q3.81,1.13,10.51,2.75a56.14,56.14,0,0,1,13,4.63,21.63,21.63,0,0,1,7.64,6.35A14.09,14.09,0,0,1,549.77,71.64Z"/><path class="cls-3" d="M604.73,63.45H571.32a22.68,22.68,0,0,0,2.34,10.26,16.17,16.17,0,0,0,6.07,6.69,16,16,0,0,0,8.36,2.26,20.48,20.48,0,0,0,5.6-.72,18.49,18.49,0,0,0,4.91-2.25A39.1,39.1,0,0,0,603,76.4c1.33-1.17,3.06-2.75,5.19-4.76a5.63,5.63,0,0,1,3.76-1.12A6.16,6.16,0,0,1,616.18,72,5.15,5.15,0,0,1,617.81,76,11.14,11.14,0,0,1,616,81.44a21.55,21.55,0,0,1-5.47,5.94,31.38,31.38,0,0,1-9.2,4.73A39.67,39.67,0,0,1,588.59,94Q572.12,94,563,84.6t-9.13-25.47a42.54,42.54,0,0,1,2.25-14.05A30.9,30.9,0,0,1,562.68,34a28.55,28.55,0,0,1,10.64-7.11,38.3,38.3,0,0,1,14-2.47q10,0,17.18,4.23a27.69,27.69,0,0,1,10.73,10.92,28.68,28.68,0,0,1,3.57,13.64q0,6.44-3.69,8.35T604.73,63.45Zm-33.41-9.7h31q-.63-8.76-4.72-13.11a14.17,14.17,0,0,0-10.8-4.35,13.68,13.68,0,0,0-10.48,4.41Q572.19,45.11,571.32,53.75Z"/><path class="cls-3" d="M670.66,77.65h32.66q4.88,0,7.45,2a6.54,6.54,0,0,1,2.56,5.45,7.26,7.26,0,0,1-2,5.19c-1.36,1.42-3.41,2.13-6.17,2.13h-46a10,10,0,0,1-7.32-2.6,8.3,8.3,0,0,1-2.63-6.1,15.45,15.45,0,0,1,1.69-6,21.37,21.37,0,0,1,3.69-5.85q8.32-8.64,15-14.8A99.4,99.4,0,0,1,679.1,49a55.71,55.71,0,0,0,8.55-7.29,29.12,29.12,0,0,0,5.19-7.5,17.85,17.85,0,0,0,1.78-7.54,13.63,13.63,0,0,0-1.91-7.17,13.25,13.25,0,0,0-5.19-4.91,15,15,0,0,0-7.16-1.75q-8.21,0-12.89,7.19a31.15,31.15,0,0,0-2.1,5.13,21.37,21.37,0,0,1-3.32,6.45,6.59,6.59,0,0,1-5.41,2.25,7,7,0,0,1-5.19-2.06,7.62,7.62,0,0,1-2.07-5.64,23.65,23.65,0,0,1,1.94-9,25.86,25.86,0,0,1,5.79-8.51,28.86,28.86,0,0,1,9.76-6.16A37.53,37.53,0,0,1,680.73.13a40.09,40.09,0,0,1,16.33,3,24.57,24.57,0,0,1,7.7,5.5,25.92,25.92,0,0,1,7,17.65,26.75,26.75,0,0,1-3.85,14.11,44.4,44.4,0,0,1-7.85,10q-4,3.6-13.43,11.29T673.72,73.58A36.17,36.17,0,0,0,670.66,77.65Z"/><path class="cls-3" d="M731.18,94a9.72,9.72,0,0,1-6.69-2.5,8.88,8.88,0,0,1-2.82-7,9.1,9.1,0,0,1,2.69-6.57A8.94,8.94,0,0,1,731,75.15a9.3,9.3,0,0,1,6.73,2.72,9.65,9.65,0,0,1,0,13.58A9.39,9.39,0,0,1,731.18,94Z"/><path class="cls-3" d="M814.05,47.43a107.69,107.69,0,0,1-1.25,17.64,41.17,41.17,0,0,1-4.63,13.39,30.71,30.71,0,0,1-11,11.39,29.89,29.89,0,0,1-32.06-1.37,32.69,32.69,0,0,1-11.36-14.9,55.89,55.89,0,0,1-2.85-11.48A96.2,96.2,0,0,1,750,48.49a130.21,130.21,0,0,1,1-17,56.33,56.33,0,0,1,3.12-13A29.44,29.44,0,0,1,764.84,4.72,29.49,29.49,0,0,1,781.64,0a31.32,31.32,0,0,1,11.7,2.1,26.64,26.64,0,0,1,9.23,6.13,35.15,35.15,0,0,1,6.72,10Q814,28.53,814.05,47.43ZM796.9,46.18a105,105,0,0,0-1.37-18.74q-1.38-7.29-4.63-11a11.35,11.35,0,0,0-9-3.72q-8.26,0-11.49,8.32t-3.22,25.66A110,110,0,0,0,768.56,66q1.38,7.51,4.63,11.36A12.08,12.08,0,0,0,791,77.15q3.26-4,4.57-11.45A116.22,116.22,0,0,0,796.9,46.18Z"/><path class="cls-3" d="M40.74,79.72a20.68,20.68,0,0,0-4,.53,21.54,21.54,0,0,1-4.06.53,5.14,5.14,0,0,1-4-1.35,6.28,6.28,0,0,1-1.5-3.5,50.51,50.51,0,0,1-.28-6.16V38.36H30.1A17.61,17.61,0,0,0,37.89,37a4.93,4.93,0,0,0,2.72-4.82,5.68,5.68,0,0,0-1.9-4.41A8,8,0,0,0,33.17,26H26.91V22.54a13.39,13.39,0,0,1-8.84-.84c-3.14-1.49-6.51-.48-8.24.25V26H8A8.89,8.89,0,0,0,2,27.75a5.52,5.52,0,0,0-2,4.41A5.71,5.71,0,0,0,1.94,36.6a8.14,8.14,0,0,0,5.64,1.76H9.83V71.14a50.83,50.83,0,0,0,1.28,12.71,12.49,12.49,0,0,0,5.41,7.44Q20.66,94,28.66,94q8.44,0,13-2.19c3-1.46,4.51-3.56,4.51-6.32a5.57,5.57,0,0,0-1.66-4.1A5.14,5.14,0,0,0,40.74,79.72Z"/><g class="cls-4"><path class="cls-5" d="M25.73,16H20.4a.25.25,0,0,1-.25-.25.25.25,0,0,1,.25-.25h5.33a.26.26,0,0,1,.25.25A.25.25,0,0,1,25.73,16Z"/><path class="cls-5" d="M25.73,20.58H20.4a.25.25,0,0,1,0-.5h5.33a.25.25,0,1,1,0,.5Z"/><path class="cls-5" d="M25.73,25.2H20.4a.25.25,0,0,1,0-.5h5.33a.25.25,0,0,1,0,.5Z"/><path class="cls-5" d="M25.73,38.86H20.4a.25.25,0,0,1-.25-.25.25.25,0,0,1,.25-.25h5.33a.25.25,0,0,1,.25.25A.26.26,0,0,1,25.73,38.86Z"/><path class="cls-5" d="M25.73,43.48H20.4a.25.25,0,0,1,0-.5h5.33a.25.25,0,0,1,0,.5Z"/><path class="cls-5" d="M25.73,48.1H20.4a.25.25,0,0,1,0-.5h5.33a.25.25,0,0,1,0,.5Z"/><path class="cls-5" d="M25.73,52.73H20.4a.25.25,0,0,1-.25-.25.25.25,0,0,1,.25-.25h5.33a.25.25,0,0,1,.25.25A.26.26,0,0,1,25.73,52.73Z"/><path class="cls-5" d="M25.73,57.35H20.4a.25.25,0,0,1,0-.5h5.33a.25.25,0,0,1,0,.5Z"/><path class="cls-5" d="M25.73,62H20.4a.25.25,0,0,1,0-.5h5.33a.25.25,0,1,1,0,.5Z"/><path class="cls-5" d="M25.73,66.6H20.4a.25.25,0,0,1-.25-.25.25.25,0,0,1,.25-.25h5.33a.25.25,0,0,1,.25.25A.26.26,0,0,1,25.73,66.6Z"/><path class="cls-5" d="M25.73,71.22H20.4a.25.25,0,0,1,0-.5h5.33a.25.25,0,1,1,0,.5Z"/><path class="cls-5" d="M25.73,75.84H20.4a.25.25,0,0,1,0-.5h5.33a.25.25,0,1,1,0,.5Z"/></g><path class="cls-6" d="M27.67,94q-7.28-.17-11.15-2.68a12.54,12.54,0,0,1-5.41-7.45,50.8,50.8,0,0,1-1.28-12.7V38.36H7.58a8.14,8.14,0,0,1-5.64-1.75A5.75,5.75,0,0,1,0,32.16a5.52,5.52,0,0,1,2-4.41A8.94,8.94,0,0,1,8,26H9.83V22a14.81,14.81,0,0,1,2.47-.78v7.56s-9.61-1.45-9.6,2.79c0,1.34.53,3.07,1.78,3.74,2.28,1.22,5.37.66,7.82.4V75.35S11.16,93.32,27.67,94Z"/><g class="cls-1"><path class="cls-7" d="M652.65,25.34s2-8.69,7.45-14.29"/></g><g class="cls-1"><path class="cls-7" d="M705.26,80.49a5.3,5.3,0,0,1,5.3,5.31"/></g><path class="cls-8" d="M730.89,77.68a6.77,6.77,0,0,1,6.77,6.77"/><path class="cls-8" d="M807,65.28a23.26,23.26,0,0,1-23.26,23.26H782.5"/><path class="cls-8" d="M756.57,28.47c0-12.84,12-23.26,24.88-23.26h1.21"/><g class="cls-1"><path class="cls-7" d="M42.69,83.09a3.46,3.46,0,0,1,1.16,3.18c-.2,2.23-3.18,3.29-3.69,3.29"/></g></svg>