<?xml version="1.0" encoding="utf-8"?>
<!-- Generator: Adobe Illustrator 24.3.0, SVG Export Plug-In . SVG Version: 6.00 Build 0)  -->
<svg version="1.1" id="Capa_1" xmlns="http://www.w3.org/2000/svg" xmlns:xlink="http://www.w3.org/1999/xlink" x="0px" y="0px"
	 viewBox="0 0 822.5 125.1" style="enable-background:new 0 0 822.5 125.1;" xml:space="preserve">
<style type="text/css">
	.st0{opacity:0.3;enable-background:new    ;}
	.st1{fill:url(#SVGID_1_);}
	.st2{fill:url(#SVGID_2_);}
	.st3{fill:url(#SVGID_3_);}
	.st4{fill:url(#SVGID_4_);}
	.st5{fill:url(#SVGID_5_);}
	.st6{fill:url(#SVGID_6_);}
	.st7{fill:url(#SVGID_7_);}
	.st8{fill:url(#SVGID_8_);}
	.st9{fill:url(#SVGID_9_);}
	.st10{fill:url(#SVGID_10_);}
	.st11{fill:url(#SVGID_11_);}
	.st12{fill:url(#SVGID_12_);}
	.st13{fill:url(#SVGID_13_);}
	.st14{opacity:0.54;}
	.st15{fill:#FFFFFF;}
	.st16{opacity:0.3;fill:#FFFFFF;}
	.st17{opacity:0.3;}
	.st18{fill:none;stroke:#FFFFFF;stroke-width:2;stroke-linecap:round;stroke-linejoin:round;}
	
		.st19{opacity:0.3;fill:none;stroke:#FFFFFF;stroke-width:2;stroke-linecap:round;stroke-linejoin:round;enable-background:new    ;}
</style>
<g>
	<g class="st0">
		<path d="M17,30.3h1.9V20c0-2.8,0.1-4.9,0.2-6.5c0.1-1.6,0.6-2.9,1.2-4c0.7-1.2,1.6-2.1,2.9-2.8c1.3-0.7,2.6-1.1,4.2-1.1
			c2.2,0,4.1,0.8,5.9,2.4c1.2,1.1,1.9,2.4,2.2,4c0.3,1.6,0.5,3.8,0.5,6.7v11.6h6.3c2.4,0,4.3,0.6,5.5,1.7c1.3,1.1,1.9,2.6,1.9,4.4
			c0,2.3-0.9,3.9-2.7,4.8c-1.8,0.9-4.4,1.4-7.8,1.4h-3.2V74c0,2.7,0.1,4.7,0.3,6.2c0.2,1.4,0.7,2.6,1.5,3.5c0.8,0.9,2.1,1.3,4,1.3
			c1,0,2.4-0.2,4.1-0.5c1.7-0.4,3-0.5,4-0.5c1.4,0,2.6,0.6,3.7,1.7c1.1,1.1,1.7,2.5,1.7,4.1c0,2.8-1.5,4.9-4.5,6.3
			c-3,1.5-7.3,2.2-13,2.2c-5.3,0-9.4-0.9-12.1-2.7s-4.6-4.3-5.4-7.4c-0.9-3.2-1.3-7.4-1.3-12.7V42.6h-2.3c-2.5,0-4.3-0.6-5.6-1.8
			C9.7,39.7,9,38.2,9,36.4c0-1.8,0.7-3.3,2-4.4C12.4,30.8,14.4,30.3,17,30.3z"/>
		<path d="M101.4,67.7H68c0,3.9,0.8,7.3,2.3,10.3c1.5,3,3.5,5.2,6.1,6.7c2.5,1.5,5.3,2.3,8.4,2.3c2,0,3.9-0.2,5.6-0.7
			c1.7-0.5,3.3-1.2,4.9-2.3c1.6-1,3-2.1,4.4-3.3c1.3-1.2,3.1-2.8,5.2-4.8c0.9-0.8,2.1-1.1,3.8-1.1c1.8,0,3.2,0.5,4.3,1.4
			c1.1,1,1.6,2.3,1.6,4.1c0,1.5-0.6,3.3-1.8,5.4c-1.2,2.1-3,4-5.5,5.9c-2.4,1.9-5.5,3.5-9.2,4.7c-3.7,1.3-7.9,1.9-12.7,1.9
			c-11,0-19.5-3.1-25.6-9.4c-6.1-6.3-9.1-14.7-9.1-25.5c0-5,0.8-9.7,2.3-14c1.5-4.3,3.7-8,6.6-11.1c2.9-3.1,6.4-5.5,10.6-7.1
			c4.2-1.6,8.9-2.5,14-2.5c6.7,0,12.4,1.4,17.2,4.2c4.8,2.8,8.4,6.5,10.7,10.9c2.4,4.5,3.6,9,3.6,13.6c0,4.3-1.2,7.1-3.7,8.4
			C109.3,67.1,105.8,67.7,101.4,67.7z M68,58h31c-0.4-5.8-2-10.2-4.7-13.1c-2.7-2.9-6.3-4.3-10.8-4.3c-4.3,0-7.7,1.5-10.5,4.4
			C70.2,47.9,68.6,52.2,68,58z"/>
		<path d="M179,64.8v22.7c0,3.6-0.8,6.3-2.4,8.1c-1.6,1.8-3.8,2.7-6.4,2.7c-2.6,0-4.7-0.9-6.3-2.7c-1.6-1.8-2.4-4.5-2.4-8.1V60.2
			c0-4.3-0.1-7.6-0.4-10c-0.3-2.4-1.1-4.3-2.4-5.9c-1.3-1.5-3.3-2.3-6.1-2.3c-5.6,0-9.3,1.9-11,5.8c-1.8,3.8-2.7,9.3-2.7,16.5v23.1
			c0,3.5-0.8,6.2-2.4,8c-1.6,1.8-3.7,2.7-6.4,2.7c-2.6,0-4.7-0.9-6.4-2.7c-1.6-1.8-2.5-4.5-2.5-8V38.6c0-3.2,0.7-5.7,2.2-7.3
			c1.5-1.7,3.4-2.5,5.9-2.5c2.3,0,4.3,0.8,5.9,2.3c1.6,1.6,2.3,3.7,2.3,6.5v1.6c3-3.5,6.1-6.2,9.5-7.8c3.4-1.7,7.1-2.5,11.3-2.5
			c4.3,0,8,0.9,11.1,2.6c3.1,1.7,5.6,4.3,7.6,7.8c2.9-3.5,6-6.1,9.3-7.8c3.3-1.7,6.9-2.5,11-2.5c4.7,0,8.7,0.9,12.1,2.8
			c3.4,1.8,5.9,4.5,7.6,7.9c1.5,3.1,2.2,7.9,2.2,14.6v33.4c0,3.6-0.8,6.3-2.4,8.1s-3.8,2.7-6.4,2.7c-2.6,0-4.7-0.9-6.4-2.7
			c-1.6-1.8-2.5-4.5-2.5-8V58.7c0-3.7-0.2-6.6-0.5-8.8c-0.3-2.2-1.2-4.1-2.5-5.6c-1.4-1.5-3.5-2.3-6.3-2.3c-2.3,0-4.4,0.7-6.4,2
			c-2,1.3-3.6,3.1-4.7,5.4C179.6,52.4,179,57.5,179,64.8z"/>
		<path d="M243.6,38.3v2.1c3.2-4,6.5-6.9,10-8.7c3.5-1.9,7.4-2.8,11.8-2.8c5.3,0,10.1,1.4,14.5,4.1c4.4,2.7,7.9,6.7,10.5,11.9
			c2.6,5.2,3.8,11.4,3.8,18.5c0,5.3-0.7,10.1-2.2,14.5c-1.5,4.4-3.5,8.1-6.1,11.1c-2.6,3-5.6,5.3-9.2,6.9c-3.5,1.6-7.3,2.4-11.4,2.4
			c-4.9,0-9-1-12.3-2.9c-3.3-2-6.5-4.8-9.5-8.6v25.7c0,7.5-2.7,11.3-8.2,11.3c-3.2,0-5.3-1-6.4-2.9c-1-1.9-1.6-4.8-1.6-8.5V38.5
			c0-3.3,0.7-5.7,2.1-7.3c1.4-1.6,3.4-2.4,5.8-2.4c2.4,0,4.4,0.8,5.9,2.5C242.9,32.9,243.6,35.3,243.6,38.3z M277.1,63.2
			c0-4.5-0.7-8.4-2.1-11.6c-1.4-3.2-3.3-5.7-5.7-7.4c-2.4-1.7-5.1-2.6-8.1-2.6c-4.7,0-8.7,1.9-11.9,5.6c-3.2,3.7-4.8,9.2-4.8,16.4
			c0,6.8,1.6,12.1,4.8,15.9c3.2,3.8,7.2,5.7,12,5.7c2.8,0,5.5-0.8,7.9-2.5c2.4-1.6,4.4-4.1,5.8-7.4
			C276.4,71.8,277.1,67.9,277.1,63.2z"/>
		<path d="M355.3,75.9c0,4.7-1.1,8.8-3.4,12.1c-2.3,3.4-5.7,5.9-10.2,7.6c-4.5,1.7-9.9,2.6-16.4,2.6c-6.1,0-11.4-0.9-15.8-2.8
			c-4.4-1.9-7.6-4.2-9.7-7c-2.1-2.8-3.1-5.6-3.1-8.5c0-1.9,0.7-3.5,2-4.8c1.3-1.3,3-2,5.1-2c1.8,0,3.2,0.4,4.1,1.3
			c1,0.9,1.9,2.1,2.8,3.7c1.8,3,3.8,5.3,6.3,6.8s5.8,2.3,10,2.3c3.4,0,6.2-0.8,8.4-2.3c2.2-1.5,3.3-3.3,3.3-5.2c0-3-1.1-5.2-3.4-6.6
			c-2.3-1.4-6-2.7-11.2-3.9c-5.9-1.5-10.7-3-14.4-4.6c-3.7-1.6-6.6-3.7-8.9-6.4c-2.2-2.6-3.3-5.9-3.3-9.7c0-3.4,1-6.7,3.1-9.7
			c2-3,5.1-5.5,9-7.3c4-1.8,8.8-2.7,14.4-2.7c4.4,0,8.4,0.5,11.9,1.4c3.5,0.9,6.5,2.1,8.8,3.7c2.4,1.5,4.2,3.3,5.4,5.1
			c1.2,1.9,1.8,3.7,1.8,5.5c0,2-0.7,3.6-2,4.8c-1.3,1.3-3.2,1.9-5.6,1.9c-1.8,0-3.2-0.5-4.5-1.5c-1.2-1-2.6-2.5-4.2-4.5
			c-1.3-1.7-2.8-3-4.6-4c-1.8-1-4.1-1.5-7.1-1.5c-3.1,0-5.7,0.7-7.7,2c-2,1.3-3.1,3-3.1,4.9c0,1.8,0.8,3.3,2.3,4.4
			c1.5,1.1,3.5,2.1,6.1,2.8c2.5,0.8,6,1.7,10.5,2.8c5.3,1.3,9.6,2.8,13,4.6c3.4,1.8,5.9,3.9,7.6,6.4C354.4,70,355.3,72.8,355.3,75.9
			z"/>
		<path d="M409.7,67.7h-33.4c0,3.9,0.8,7.3,2.3,10.3c1.5,3,3.5,5.2,6.1,6.7c2.5,1.5,5.3,2.3,8.4,2.3c2,0,3.9-0.2,5.6-0.7
			c1.7-0.5,3.3-1.2,4.9-2.3c1.6-1,3-2.1,4.4-3.3c1.3-1.2,3.1-2.8,5.2-4.8c0.9-0.8,2.1-1.1,3.8-1.1c1.8,0,3.2,0.5,4.3,1.4
			c1.1,1,1.6,2.3,1.6,4.1c0,1.5-0.6,3.3-1.8,5.4c-1.2,2.1-3,4-5.5,5.9c-2.4,1.9-5.5,3.5-9.2,4.7c-3.7,1.3-7.9,1.9-12.7,1.9
			c-11,0-19.5-3.1-25.6-9.4c-6.1-6.3-9.1-14.7-9.1-25.5c0-5,0.8-9.7,2.3-14c1.5-4.3,3.7-8,6.6-11.1c2.9-3.1,6.4-5.5,10.6-7.1
			c4.2-1.6,8.9-2.5,14-2.5c6.7,0,12.4,1.4,17.2,4.2c4.8,2.8,8.4,6.5,10.7,10.9s3.6,9,3.6,13.6c0,4.3-1.2,7.1-3.7,8.4
			C417.6,67.1,414.2,67.7,409.7,67.7z M376.3,58h31c-0.4-5.8-2-10.2-4.7-13.1c-2.7-2.9-6.3-4.3-10.8-4.3c-4.3,0-7.7,1.5-10.5,4.4
			C378.5,47.9,376.9,52.2,376.3,58z"/>
		<path d="M446,38.2v2.1c3-4,6.3-6.9,9.9-8.7c3.6-1.9,7.7-2.8,12.3-2.8c4.5,0,8.5,1,12.1,2.9c3.5,2,6.2,4.7,7.9,8.3
			c1.1,2.1,1.9,4.3,2.2,6.8c0.3,2.4,0.5,5.5,0.5,9.3v31.8c0,3.4-0.8,6-2.3,7.8s-3.6,2.6-6.1,2.6c-2.5,0-4.6-0.9-6.2-2.7
			c-1.6-1.8-2.4-4.4-2.4-7.7V59.4c0-5.6-0.8-9.9-2.3-12.9c-1.6-3-4.7-4.5-9.4-4.5c-3,0-5.8,0.9-8.3,2.7s-4.3,4.3-5.5,7.5
			c-0.8,2.5-1.3,7.3-1.3,14.3v21.4c0,3.5-0.8,6.1-2.4,7.8c-1.6,1.7-3.7,2.6-6.2,2.6c-2.5,0-4.5-0.9-6.1-2.7
			c-1.6-1.8-2.4-4.4-2.4-7.7V38.5c0-3.3,0.7-5.7,2.1-7.3c1.4-1.6,3.4-2.4,5.8-2.4c1.5,0,2.9,0.4,4.1,1.1c1.2,0.7,2.2,1.8,2.9,3.2
			C445.6,34.4,446,36.2,446,38.2z"/>
		<path d="M555.2,75.9c0,4.7-1.1,8.8-3.4,12.1c-2.3,3.4-5.7,5.9-10.2,7.6c-4.5,1.7-9.9,2.6-16.4,2.6c-6.1,0-11.4-0.9-15.8-2.8
			c-4.4-1.9-7.6-4.2-9.7-7c-2.1-2.8-3.1-5.6-3.1-8.5c0-1.9,0.7-3.5,2-4.8c1.3-1.3,3-2,5.1-2c1.8,0,3.2,0.4,4.1,1.3s1.9,2.1,2.8,3.7
			c1.8,3,3.8,5.3,6.3,6.8s5.8,2.3,10,2.3c3.4,0,6.2-0.8,8.4-2.3c2.2-1.5,3.3-3.3,3.3-5.2c0-3-1.1-5.2-3.4-6.6
			c-2.3-1.4-6-2.7-11.2-3.9c-5.9-1.5-10.7-3-14.4-4.6c-3.7-1.6-6.6-3.7-8.9-6.4c-2.2-2.6-3.3-5.9-3.3-9.7c0-3.4,1-6.7,3.1-9.7
			c2-3,5.1-5.5,9-7.3c4-1.8,8.8-2.7,14.4-2.7c4.4,0,8.4,0.5,11.9,1.4c3.5,0.9,6.5,2.1,8.8,3.7c2.4,1.5,4.2,3.3,5.4,5.1
			s1.8,3.7,1.8,5.5c0,2-0.7,3.6-2,4.8c-1.3,1.3-3.2,1.9-5.6,1.9c-1.8,0-3.2-0.5-4.5-1.5c-1.2-1-2.6-2.5-4.2-4.5
			c-1.3-1.7-2.8-3-4.6-4c-1.8-1-4.1-1.5-7.1-1.5c-3.1,0-5.7,0.7-7.7,2c-2,1.3-3.1,3-3.1,4.9c0,1.8,0.8,3.3,2.3,4.4
			c1.5,1.1,3.5,2.1,6.1,2.8c2.5,0.8,6,1.7,10.5,2.8c5.3,1.3,9.6,2.8,13,4.6c3.4,1.8,5.9,3.9,7.6,6.4C554.3,70,555.2,72.8,555.2,75.9
			z"/>
		<path d="M609.7,67.7h-33.4c0,3.9,0.8,7.3,2.3,10.3c1.5,3,3.5,5.2,6.1,6.7c2.5,1.5,5.3,2.3,8.4,2.3c2,0,3.9-0.2,5.6-0.7
			c1.7-0.5,3.3-1.2,4.9-2.3c1.6-1,3-2.1,4.4-3.3c1.3-1.2,3.1-2.8,5.2-4.8c0.9-0.8,2.1-1.1,3.8-1.1c1.8,0,3.2,0.5,4.3,1.4
			c1.1,1,1.6,2.3,1.6,4.1c0,1.5-0.6,3.3-1.8,5.4c-1.2,2.1-3,4-5.5,5.9c-2.4,1.9-5.5,3.5-9.2,4.7c-3.7,1.3-7.9,1.9-12.7,1.9
			c-11,0-19.5-3.1-25.6-9.4c-6.1-6.3-9.1-14.7-9.1-25.5c0-5,0.8-9.7,2.3-14c1.5-4.3,3.7-8,6.6-11.1c2.9-3.1,6.4-5.5,10.6-7.1
			c4.2-1.6,8.9-2.5,14-2.5c6.7,0,12.4,1.4,17.2,4.2c4.8,2.8,8.4,6.5,10.7,10.9c2.4,4.5,3.6,9,3.6,13.6c0,4.3-1.2,7.1-3.7,8.4
			C617.6,67.1,614.1,67.7,609.7,67.7z M576.2,58h31c-0.4-5.8-2-10.2-4.7-13.1s-6.3-4.3-10.8-4.3c-4.3,0-7.7,1.5-10.5,4.4
			C578.5,47.9,576.8,52.2,576.2,58z"/>
		<path d="M674.6,81.9h32.7c3.3,0,5.7,0.7,7.4,2c1.7,1.3,2.6,3.1,2.6,5.4c0,2-0.7,3.8-2,5.2c-1.4,1.4-3.4,2.1-6.2,2.1H663
			c-3.1,0-5.6-0.9-7.3-2.6c-1.8-1.7-2.6-3.8-2.6-6.1c0-1.5,0.6-3.5,1.7-6c1.1-2.5,2.4-4.4,3.7-5.9c5.5-5.8,10.6-10.7,15-14.8
			c4.5-4.1,7.7-6.8,9.6-8.1c3.4-2.4,6.3-4.8,8.5-7.3c2.3-2.4,4-4.9,5.2-7.5c1.2-2.6,1.8-5.1,1.8-7.5c0-2.7-0.6-5.1-1.9-7.2
			c-1.3-2.1-3-3.7-5.2-4.9c-2.2-1.2-4.6-1.8-7.2-1.8c-5.5,0-9.8,2.4-12.9,7.2c-0.4,0.6-1.1,2.3-2.1,5.1c-1,2.8-2.1,4.9-3.3,6.4
			c-1.2,1.5-3,2.3-5.4,2.3c-2.1,0-3.8-0.7-5.2-2.1c-1.4-1.4-2.1-3.3-2.1-5.6c0-2.9,0.6-5.9,1.9-9s3.2-6,5.8-8.5
			c2.6-2.5,5.8-4.6,9.8-6.2c3.9-1.6,8.6-2.3,13.9-2.3c6.4,0,11.8,1,16.3,3c2.9,1.3,5.5,3.2,7.7,5.5c2.2,2.3,3.9,5,5.2,8.1
			c1.2,3.1,1.8,6.2,1.8,9.5c0,5.2-1.3,9.9-3.8,14.1c-2.6,4.2-5.2,7.6-7.9,9.9c-2.7,2.4-7.1,6.2-13.4,11.3s-10.6,9.1-12.9,12
			C676.6,79,675.6,80.3,674.6,81.9z"/>
		<path d="M734.6,98.2c-2.6,0-4.8-0.8-6.7-2.5s-2.8-4-2.8-7c0-2.5,0.9-4.7,2.7-6.6c1.8-1.8,4-2.8,6.6-2.8s4.9,0.9,6.7,2.7
			c1.9,1.8,2.8,4,2.8,6.6c0,3-0.9,5.3-2.8,7C739.3,97.4,737.1,98.2,734.6,98.2z"/>
		<path d="M816.9,51.7c0,6.8-0.4,12.7-1.3,17.6c-0.8,4.9-2.4,9.4-4.6,13.4c-2.8,4.9-6.5,8.7-11,11.4c-4.5,2.7-9.5,4-15,4
			c-6.3,0-12-1.8-17.1-5.4c-5-3.6-8.8-8.6-11.4-14.9c-1.3-3.5-2.2-7.3-2.8-11.5s-0.9-8.7-0.9-13.6c0-6.3,0.3-12,1-17
			c0.7-5,1.7-9.4,3.1-13c2.5-6,6-10.6,10.7-13.7c4.7-3.1,10.3-4.7,16.8-4.7c4.3,0,8.2,0.7,11.7,2.1s6.6,3.4,9.2,6.1
			c2.6,2.7,4.9,6,6.7,10C815.3,29.3,816.9,39.1,816.9,51.7z M799.8,50.4c0-7.6-0.5-13.9-1.4-18.7c-0.9-4.9-2.5-8.5-4.6-11
			c-2.2-2.5-5.2-3.7-9-3.7c-5.5,0-9.3,2.8-11.5,8.3c-2.1,5.5-3.2,14.1-3.2,25.7c0,7.8,0.5,14.3,1.4,19.3s2.5,8.8,4.6,11.4
			c2.2,2.6,5.1,3.8,8.8,3.8c3.8,0,6.8-1.3,9-4c2.2-2.7,3.7-6.5,4.6-11.5C799.3,65,799.8,58.5,799.8,50.4z"/>
	</g>
	<g>
		<g>
			<linearGradient id="SVGID_1_" gradientUnits="userSpaceOnUse" x1="29.0768" y1="49.8919" x2="29.0768" y2="96.0086">
				<stop  offset="0" style="stop-color:#FF9811"/>
				<stop  offset="1" style="stop-color:#D67900"/>
			</linearGradient>
			<path class="st1" d="M14,28.3h1.9V18c0-2.8,0.1-4.9,0.2-6.5c0.1-1.6,0.6-2.9,1.2-4c0.7-1.2,1.6-2.1,2.9-2.8
				c1.3-0.7,2.6-1.1,4.2-1.1c2.2,0,4.1,0.8,5.9,2.4c1.2,1.1,1.9,2.4,2.2,4c0.3,1.6,0.5,3.8,0.5,6.7v11.6h6.3c2.4,0,4.3,0.6,5.5,1.7
				c1.3,1.1,1.9,2.6,1.9,4.4c0,2.3-0.9,3.9-2.7,4.8c-1.8,0.9-4.4,1.4-7.8,1.4h-3.2V72c0,2.7,0.1,4.7,0.3,6.2
				c0.2,1.4,0.7,2.6,1.5,3.5c0.8,0.9,2.1,1.3,4,1.3c1,0,2.4-0.2,4.1-0.5c1.7-0.4,3-0.5,4-0.5c1.4,0,2.6,0.6,3.7,1.7
				c1.1,1.1,1.7,2.5,1.7,4.1c0,2.8-1.5,4.9-4.5,6.3c-3,1.5-7.3,2.2-13,2.2c-5.3,0-9.4-0.9-12.1-2.7s-4.6-4.3-5.4-7.4
				c-0.9-3.2-1.3-7.4-1.3-12.7V40.6h-2.3c-2.5,0-4.3-0.6-5.6-1.8C6.7,37.7,6,36.2,6,34.4c0-1.8,0.7-3.3,2-4.4
				C9.4,28.8,11.4,28.3,14,28.3z"/>
			<linearGradient id="SVGID_2_" gradientUnits="userSpaceOnUse" x1="79.9877" y1="27.8633" x2="79.9877" y2="92.8145">
				<stop  offset="0" style="stop-color:#FF9811"/>
				<stop  offset="1" style="stop-color:#D67900"/>
			</linearGradient>
			<path class="st2" d="M98.4,65.7H65c0,3.9,0.8,7.3,2.3,10.3c1.5,3,3.5,5.2,6.1,6.7c2.5,1.5,5.3,2.3,8.4,2.3c2,0,3.9-0.2,5.6-0.7
				c1.7-0.5,3.3-1.2,4.9-2.3c1.6-1,3-2.1,4.4-3.3c1.3-1.2,3.1-2.8,5.2-4.8c0.9-0.8,2.1-1.1,3.8-1.1c1.8,0,3.2,0.5,4.3,1.4
				c1.1,1,1.6,2.3,1.6,4.1c0,1.5-0.6,3.3-1.8,5.4c-1.2,2.1-3,4-5.5,5.9c-2.4,1.9-5.5,3.5-9.2,4.7c-3.7,1.3-7.9,1.9-12.7,1.9
				c-11,0-19.5-3.1-25.6-9.4c-6.1-6.3-9.1-14.7-9.1-25.5c0-5,0.8-9.7,2.3-14c1.5-4.3,3.7-8,6.6-11.1c2.9-3.1,6.4-5.5,10.6-7.1
				c4.2-1.6,8.9-2.5,14-2.5c6.7,0,12.4,1.4,17.2,4.2c4.8,2.8,8.4,6.5,10.7,10.9c2.4,4.5,3.6,9,3.6,13.6c0,4.3-1.2,7.1-3.7,8.4
				C106.3,65.1,102.8,65.7,98.4,65.7z M65,56h31c-0.4-5.8-2-10.2-4.7-13.1c-2.7-2.9-6.3-4.3-10.8-4.3c-4.3,0-7.7,1.5-10.5,4.4
				C67.2,45.9,65.6,50.2,65,56z"/>
			<linearGradient id="SVGID_3_" gradientUnits="userSpaceOnUse" x1="167.0658" y1="23.4768" x2="167.0658" y2="93.2372">
				<stop  offset="0" style="stop-color:#FF9811"/>
				<stop  offset="1" style="stop-color:#D67900"/>
			</linearGradient>
			<path class="st3" d="M176,62.8v22.7c0,3.6-0.8,6.3-2.4,8.1c-1.6,1.8-3.8,2.7-6.4,2.7c-2.6,0-4.7-0.9-6.3-2.7
				c-1.6-1.8-2.4-4.5-2.4-8.1V58.2c0-4.3-0.1-7.6-0.4-10c-0.3-2.4-1.1-4.3-2.4-5.9c-1.3-1.5-3.3-2.3-6.1-2.3c-5.6,0-9.3,1.9-11,5.8
				c-1.8,3.8-2.7,9.3-2.7,16.5v23.1c0,3.5-0.8,6.2-2.4,8c-1.6,1.8-3.7,2.7-6.4,2.7c-2.6,0-4.7-0.9-6.4-2.7c-1.6-1.8-2.5-4.5-2.5-8
				V36.6c0-3.2,0.7-5.7,2.2-7.3c1.5-1.7,3.4-2.5,5.9-2.5c2.3,0,4.3,0.8,5.9,2.3c1.6,1.6,2.3,3.7,2.3,6.5v1.6c3-3.5,6.1-6.2,9.5-7.8
				c3.4-1.7,7.1-2.5,11.3-2.5c4.3,0,8,0.9,11.1,2.6c3.1,1.7,5.6,4.3,7.6,7.8c2.9-3.5,6-6.1,9.3-7.8c3.3-1.7,6.9-2.5,11-2.5
				c4.7,0,8.7,0.9,12.1,2.8c3.4,1.8,5.9,4.5,7.6,7.9c1.5,3.1,2.2,7.9,2.2,14.6v33.4c0,3.6-0.8,6.3-2.4,8.1s-3.8,2.7-6.4,2.7
				c-2.6,0-4.7-0.9-6.4-2.7c-1.6-1.8-2.5-4.5-2.5-8V56.7c0-3.7-0.2-6.6-0.5-8.8c-0.3-2.2-1.2-4.1-2.5-5.6c-1.4-1.5-3.5-2.3-6.3-2.3
				c-2.3,0-4.4,0.7-6.4,2c-2,1.3-3.6,3.1-4.7,5.4C176.6,50.4,176,55.5,176,62.8z"/>
			<linearGradient id="SVGID_4_" gradientUnits="userSpaceOnUse" x1="257.8671" y1="31.2938" x2="257.8671" y2="98.0594">
				<stop  offset="0" style="stop-color:#FF9811"/>
				<stop  offset="1" style="stop-color:#D67900"/>
			</linearGradient>
			<path class="st4" d="M240.6,36.3v2.1c3.2-4,6.5-6.9,10-8.7c3.5-1.9,7.4-2.8,11.8-2.8c5.3,0,10.1,1.4,14.5,4.1
				c4.4,2.7,7.9,6.7,10.5,11.9c2.6,5.2,3.8,11.4,3.8,18.5c0,5.3-0.7,10.1-2.2,14.5c-1.5,4.4-3.5,8.1-6.1,11.1
				c-2.6,3-5.6,5.3-9.2,6.9c-3.5,1.6-7.3,2.4-11.4,2.4c-4.9,0-9-1-12.3-2.9c-3.3-2-6.5-4.8-9.5-8.6v25.7c0,7.5-2.7,11.3-8.2,11.3
				c-3.2,0-5.3-1-6.4-2.9c-1-1.9-1.6-4.8-1.6-8.5V36.5c0-3.3,0.7-5.7,2.1-7.3c1.4-1.6,3.4-2.4,5.8-2.4c2.4,0,4.4,0.8,5.9,2.5
				C239.9,30.9,240.6,33.3,240.6,36.3z M274.1,61.2c0-4.5-0.7-8.4-2.1-11.6c-1.4-3.2-3.3-5.7-5.7-7.4c-2.4-1.7-5.1-2.6-8.1-2.6
				c-4.7,0-8.7,1.9-11.9,5.6c-3.2,3.7-4.8,9.2-4.8,16.4c0,6.8,1.6,12.1,4.8,15.9c3.2,3.8,7.2,5.7,12,5.7c2.8,0,5.5-0.8,7.9-2.5
				c2.4-1.6,4.4-4.1,5.8-7.4C273.4,69.8,274.1,65.9,274.1,61.2z"/>
		</g>
	</g>
	<g>
		<g>
			<linearGradient id="SVGID_5_" gradientUnits="userSpaceOnUse" x1="325.0248" y1="87.7914" x2="325.0248" y2="29.2231">
				<stop  offset="0" style="stop-color:#96101E"/>
				<stop  offset="1" style="stop-color:#C11626"/>
			</linearGradient>
			<path class="st5" d="M354.3,73.9c0,4.7-1.1,8.8-3.4,12.1c-2.3,3.4-5.7,5.9-10.2,7.6c-4.5,1.7-9.9,2.6-16.4,2.6
				c-6.1,0-11.4-0.9-15.8-2.8c-4.4-1.9-7.6-4.2-9.7-7c-2.1-2.8-3.1-5.6-3.1-8.5c0-1.9,0.7-3.5,2-4.8c1.3-1.3,3-2,5.1-2
				c1.8,0,3.2,0.4,4.1,1.3c1,0.9,1.9,2.1,2.8,3.7c1.8,3,3.8,5.3,6.3,6.8s5.8,2.3,10,2.3c3.4,0,6.2-0.8,8.4-2.3
				c2.2-1.5,3.3-3.3,3.3-5.2c0-3-1.1-5.2-3.4-6.6c-2.3-1.4-6-2.7-11.2-3.9c-5.9-1.5-10.7-3-14.4-4.6c-3.7-1.6-6.6-3.7-8.9-6.4
				c-2.2-2.6-3.3-5.9-3.3-9.7c0-3.4,1-6.7,3.1-9.7c2-3,5.1-5.5,9-7.3c4-1.8,8.8-2.7,14.4-2.7c4.4,0,8.4,0.5,11.9,1.4
				c3.5,0.9,6.5,2.1,8.8,3.7c2.4,1.5,4.2,3.3,5.4,5.1c1.2,1.9,1.8,3.7,1.8,5.5c0,2-0.7,3.6-2,4.8c-1.3,1.3-3.2,1.9-5.6,1.9
				c-1.8,0-3.2-0.5-4.5-1.5c-1.2-1-2.6-2.5-4.2-4.5c-1.3-1.7-2.8-3-4.6-4c-1.8-1-4.1-1.5-7.1-1.5c-3.1,0-5.7,0.7-7.7,2
				c-2,1.3-3.1,3-3.1,4.9c0,1.8,0.8,3.3,2.3,4.4c1.5,1.1,3.5,2.1,6.1,2.8c2.5,0.8,6,1.7,10.5,2.8c5.3,1.3,9.6,2.8,13,4.6
				c3.4,1.8,5.9,3.9,7.6,6.4C353.4,68,354.3,70.8,354.3,73.9z"/>
			<linearGradient id="SVGID_6_" gradientUnits="userSpaceOnUse" x1="390.358" y1="90.5599" x2="390.358" y2="25.6092">
				<stop  offset="0" style="stop-color:#96101E"/>
				<stop  offset="1" style="stop-color:#C11626"/>
			</linearGradient>
			<path class="st6" d="M408.8,65.7h-33.4c0,3.9,0.8,7.3,2.3,10.3c1.5,3,3.5,5.2,6.1,6.7c2.5,1.5,5.3,2.3,8.4,2.3
				c2,0,3.9-0.2,5.6-0.7c1.7-0.5,3.3-1.2,4.9-2.3c1.6-1,3-2.1,4.4-3.3c1.3-1.2,3.1-2.8,5.2-4.8c0.9-0.8,2.1-1.1,3.8-1.1
				c1.8,0,3.2,0.5,4.3,1.4c1.1,1,1.6,2.3,1.6,4.1c0,1.5-0.6,3.3-1.8,5.4c-1.2,2.1-3,4-5.5,5.9c-2.4,1.9-5.5,3.5-9.2,4.7
				c-3.7,1.3-7.9,1.9-12.7,1.9c-11,0-19.5-3.1-25.6-9.4c-6.1-6.3-9.1-14.7-9.1-25.5c0-5,0.8-9.7,2.3-14c1.5-4.3,3.7-8,6.6-11.1
				c2.9-3.1,6.4-5.5,10.6-7.1c4.2-1.6,8.9-2.5,14-2.5c6.7,0,12.4,1.4,17.2,4.2c4.8,2.8,8.4,6.5,10.7,10.9s3.6,9,3.6,13.6
				c0,4.3-1.2,7.1-3.7,8.4C416.7,65.1,413.2,65.7,408.8,65.7z M375.3,56h31c-0.4-5.8-2-10.2-4.7-13.1c-2.7-2.9-6.3-4.3-10.8-4.3
				c-4.3,0-7.7,1.5-10.5,4.4C377.6,45.9,375.9,50.2,375.3,56z"/>
			<linearGradient id="SVGID_7_" gradientUnits="userSpaceOnUse" x1="459.4784" y1="87.7914" x2="459.4784" y2="26.9076">
				<stop  offset="0" style="stop-color:#96101E"/>
				<stop  offset="1" style="stop-color:#C11626"/>
			</linearGradient>
			<path class="st7" d="M445.1,36.2v2.1c3-4,6.3-6.9,9.9-8.7c3.6-1.9,7.7-2.8,12.3-2.8c4.5,0,8.5,1,12.1,2.9c3.5,2,6.2,4.7,7.9,8.3
				c1.1,2.1,1.9,4.3,2.2,6.8c0.3,2.4,0.5,5.5,0.5,9.3v31.8c0,3.4-0.8,6-2.3,7.8s-3.6,2.6-6.1,2.6c-2.5,0-4.6-0.9-6.2-2.7
				c-1.6-1.8-2.4-4.4-2.4-7.7V57.4c0-5.6-0.8-9.9-2.3-12.9c-1.6-3-4.7-4.5-9.4-4.5c-3,0-5.8,0.9-8.3,2.7s-4.3,4.3-5.5,7.5
				c-0.8,2.5-1.3,7.3-1.3,14.3v21.4c0,3.5-0.8,6.1-2.4,7.8c-1.6,1.7-3.7,2.6-6.2,2.6c-2.5,0-4.5-0.9-6.1-2.7
				c-1.6-1.8-2.4-4.4-2.4-7.7V36.5c0-3.3,0.7-5.7,2.1-7.3s3.4-2.4,5.8-2.4c1.5,0,2.9,0.4,4.1,1.1c1.2,0.7,2.2,1.8,2.9,3.2
				C444.7,32.4,445.1,34.2,445.1,36.2z"/>
			<linearGradient id="SVGID_8_" gradientUnits="userSpaceOnUse" x1="524.9681" y1="86.9825" x2="524.9681" y2="28.4141">
				<stop  offset="0" style="stop-color:#96101E"/>
				<stop  offset="1" style="stop-color:#C11626"/>
			</linearGradient>
			<path class="st8" d="M554.3,73.9c0,4.7-1.1,8.8-3.4,12.1c-2.3,3.4-5.7,5.9-10.2,7.6c-4.5,1.7-9.9,2.6-16.4,2.6
				c-6.1,0-11.4-0.9-15.8-2.8c-4.4-1.9-7.6-4.2-9.7-7c-2.1-2.8-3.1-5.6-3.1-8.5c0-1.9,0.7-3.5,2-4.8c1.3-1.3,3-2,5.1-2
				c1.8,0,3.2,0.4,4.1,1.3s1.9,2.1,2.8,3.7c1.8,3,3.8,5.3,6.3,6.8s5.8,2.3,10,2.3c3.4,0,6.2-0.8,8.4-2.3c2.2-1.5,3.3-3.3,3.3-5.2
				c0-3-1.1-5.2-3.4-6.6c-2.3-1.4-6-2.7-11.2-3.9c-5.9-1.5-10.7-3-14.4-4.6c-3.7-1.6-6.6-3.7-8.9-6.4c-2.2-2.6-3.3-5.9-3.3-9.7
				c0-3.4,1-6.7,3.1-9.7c2-3,5.1-5.5,9-7.3s8.8-2.7,14.4-2.7c4.4,0,8.4,0.5,11.9,1.4c3.5,0.9,6.5,2.1,8.8,3.7
				c2.4,1.5,4.2,3.3,5.4,5.1s1.8,3.7,1.8,5.5c0,2-0.7,3.6-2,4.8c-1.3,1.3-3.2,1.9-5.6,1.9c-1.8,0-3.2-0.5-4.5-1.5
				c-1.2-1-2.6-2.5-4.2-4.5c-1.3-1.7-2.8-3-4.6-4c-1.8-1-4.1-1.5-7.1-1.5c-3.1,0-5.7,0.7-7.7,2c-2,1.3-3.1,3-3.1,4.9
				c0,1.8,0.8,3.3,2.3,4.4c1.5,1.1,3.5,2.1,6.1,2.8c2.5,0.8,6,1.7,10.5,2.8c5.3,1.3,9.6,2.8,13,4.6c3.4,1.8,5.9,3.9,7.6,6.4
				C553.4,68,554.3,70.8,554.3,73.9z"/>
			<linearGradient id="SVGID_9_" gradientUnits="userSpaceOnUse" x1="590.3021" y1="91.3689" x2="590.3021" y2="26.4177">
				<stop  offset="0" style="stop-color:#96101E"/>
				<stop  offset="1" style="stop-color:#C11626"/>
			</linearGradient>
			<path class="st9" d="M608.7,65.7h-33.4c0,3.9,0.8,7.3,2.3,10.3c1.5,3,3.5,5.2,6.1,6.7c2.5,1.5,5.3,2.3,8.4,2.3
				c2,0,3.9-0.2,5.6-0.7c1.7-0.5,3.3-1.2,4.9-2.3c1.6-1,3-2.1,4.4-3.3s3.1-2.8,5.2-4.8c0.9-0.8,2.1-1.1,3.8-1.1
				c1.8,0,3.2,0.5,4.3,1.4c1.1,1,1.6,2.3,1.6,4.1c0,1.5-0.6,3.3-1.8,5.4c-1.2,2.1-3,4-5.5,5.9c-2.4,1.9-5.5,3.5-9.2,4.7
				c-3.7,1.3-7.9,1.9-12.7,1.9c-11,0-19.5-3.1-25.6-9.4c-6.1-6.3-9.1-14.7-9.1-25.5c0-5,0.8-9.7,2.3-14s3.7-8,6.6-11.1
				c2.9-3.1,6.4-5.5,10.6-7.1c4.2-1.6,8.9-2.5,14-2.5c6.7,0,12.4,1.4,17.2,4.2c4.8,2.8,8.4,6.5,10.7,10.9s3.6,9,3.6,13.6
				c0,4.3-1.2,7.1-3.7,8.4C616.6,65.1,613.2,65.7,608.7,65.7z M575.3,56h31c-0.4-5.8-2-10.2-4.7-13.1c-2.7-2.9-6.3-4.3-10.8-4.3
				c-4.3,0-7.7,1.5-10.5,4.4S575.9,50.2,575.3,56z"/>
			<linearGradient id="SVGID_10_" gradientUnits="userSpaceOnUse" x1="684.1776" y1="32.3352" x2="684.1776" y2="96.5353">
				<stop  offset="0" style="stop-color:#C11626"/>
				<stop  offset="1" style="stop-color:#96101E"/>
			</linearGradient>
			<path class="st10" d="M673.6,79.9h32.7c3.3,0,5.7,0.7,7.4,2c1.7,1.3,2.6,3.1,2.6,5.4c0,2-0.7,3.8-2,5.2c-1.4,1.4-3.4,2.1-6.2,2.1
				H662c-3.1,0-5.6-0.9-7.3-2.6c-1.8-1.7-2.6-3.8-2.6-6.1c0-1.5,0.6-3.5,1.7-6c1.1-2.5,2.4-4.4,3.7-5.9c5.5-5.8,10.6-10.7,15-14.8
				c4.5-4.1,7.7-6.8,9.6-8.1c3.4-2.4,6.3-4.8,8.5-7.3c2.3-2.4,4-4.9,5.2-7.5c1.2-2.6,1.8-5.1,1.8-7.5c0-2.7-0.6-5.1-1.9-7.2
				c-1.3-2.1-3-3.7-5.2-4.9c-2.2-1.2-4.6-1.8-7.2-1.8c-5.5,0-9.8,2.4-12.9,7.2c-0.4,0.6-1.1,2.3-2.1,5.1c-1,2.8-2.1,4.9-3.3,6.4
				s-3,2.3-5.4,2.3c-2.1,0-3.8-0.7-5.2-2.1c-1.4-1.4-2.1-3.3-2.1-5.6c0-2.9,0.6-5.9,1.9-9s3.2-6,5.8-8.5c2.6-2.5,5.8-4.6,9.8-6.2
				s8.6-2.3,13.9-2.3c6.4,0,11.8,1,16.3,3c2.9,1.3,5.5,3.2,7.7,5.5s3.9,5,5.2,8.1c1.2,3.1,1.8,6.2,1.8,9.5c0,5.2-1.3,9.9-3.8,14.1
				c-2.6,4.2-5.2,7.6-7.9,9.9c-2.7,2.4-7.1,6.2-13.4,11.3c-6.3,5.1-10.6,9.1-12.9,12C675.7,77,674.6,78.3,673.6,79.9z"/>
			<linearGradient id="SVGID_11_" gradientUnits="userSpaceOnUse" x1="733.5233" y1="96.2481" x2="733.5233" y2="77.4131">
				<stop  offset="0" style="stop-color:#96101E"/>
				<stop  offset="1" style="stop-color:#C11626"/>
			</linearGradient>
			<path class="st11" d="M733.6,96.2c-2.6,0-4.8-0.8-6.7-2.5s-2.8-4-2.8-7c0-2.5,0.9-4.7,2.7-6.6c1.8-1.8,4-2.8,6.6-2.8
				s4.9,0.9,6.7,2.7c1.9,1.8,2.8,4,2.8,6.6c0,3-0.9,5.3-2.8,7C738.3,95.4,736.1,96.2,733.6,96.2z"/>
			<linearGradient id="SVGID_12_" gradientUnits="userSpaceOnUse" x1="783.9335" y1="82.071" x2="783.9335" y2="17.9958">
				<stop  offset="0" style="stop-color:#96101E"/>
				<stop  offset="1" style="stop-color:#C11626"/>
			</linearGradient>
			<path class="st12" d="M816,49.7c0,6.8-0.4,12.7-1.3,17.6c-0.8,4.9-2.4,9.4-4.6,13.4c-2.8,4.9-6.5,8.7-11,11.4s-9.5,4-15,4
				c-6.3,0-12-1.8-17.1-5.4c-5-3.6-8.8-8.6-11.4-14.9c-1.3-3.5-2.2-7.3-2.8-11.5c-0.6-4.2-0.9-8.7-0.9-13.6c0-6.3,0.3-12,1-17
				c0.7-5,1.7-9.4,3.1-13c2.5-6,6-10.6,10.7-13.7c4.7-3.1,10.3-4.7,16.8-4.7c4.3,0,8.2,0.7,11.7,2.1c3.5,1.4,6.6,3.4,9.2,6.1
				s4.9,6,6.7,10C814.4,27.3,816,37.1,816,49.7z M798.8,48.4c0-7.6-0.5-13.9-1.4-18.7c-0.9-4.9-2.5-8.5-4.6-11
				c-2.2-2.5-5.2-3.7-9-3.7c-5.5,0-9.3,2.8-11.5,8.3c-2.1,5.5-3.2,14.1-3.2,25.7c0,7.8,0.5,14.3,1.4,19.3c0.9,5,2.5,8.8,4.6,11.4
				s5.1,3.8,8.8,3.8c3.8,0,6.8-1.3,9-4c2.2-2.7,3.7-6.5,4.6-11.5C798.4,63,798.8,56.5,798.8,48.4z"/>
		</g>
	</g>
	<linearGradient id="SVGID_13_" gradientUnits="userSpaceOnUse" x1="29.1137" y1="96.1235" x2="29.1137" y2="49.9994">
		<stop  offset="0" style="stop-color:#96101E"/>
		<stop  offset="1" style="stop-color:#C11626"/>
	</linearGradient>
	<path class="st13" d="M46.8,82c-1.3,0.1-2.7,0.2-4,0.5c-1.3,0.3-2.7,0.5-4.1,0.5c-1.5,0.1-2.9-0.3-4-1.3c-0.9-1-1.4-2.2-1.5-3.5
		c-0.2-2-0.3-4.1-0.3-6.2V40.6h3.2c2.7,0.1,5.3-0.3,7.8-1.4c1.8-0.9,2.9-2.8,2.7-4.8c0.1-1.7-0.6-3.3-1.9-4.4
		c-1.6-1.2-3.5-1.9-5.5-1.7h-6.3v-3.5c-3,0.7-6.1,0.4-8.8-0.8c-3.1-1.5-6.5-0.5-8.2,0.3v4.1H14c-2.1-0.1-4.2,0.5-5.9,1.7
		c-1.3,1.1-2,2.7-2,4.4c0,1.7,0.7,3.3,1.9,4.4c1.6,1.2,3.6,1.9,5.6,1.7h2.3v32.8c-0.1,4.3,0.3,8.5,1.3,12.7c0.8,3.1,2.7,5.8,5.4,7.5
		c2.8,1.8,6.8,2.7,12.1,2.7c5.6,0,10-0.7,13-2.2s4.5-3.6,4.5-6.3c0-1.5-0.6-3-1.7-4.1C49.6,82.6,48.2,82,46.8,82z"/>
	<g class="st14">
		<path class="st15" d="M31.8,18.2h-5.3c-0.1,0-0.3-0.1-0.3-0.3s0.1-0.3,0.3-0.3h5.3c0.1,0,0.2,0.1,0.3,0.3
			C32,18.1,31.9,18.2,31.8,18.2z"/>
		<path class="st15" d="M31.8,22.8h-5.3c-0.1,0-0.3-0.1-0.3-0.3s0.1-0.3,0.3-0.3h5.3c0.1,0,0.3,0.1,0.3,0.3S31.9,22.8,31.8,22.8z"/>
		<path class="st15" d="M31.8,27.4h-5.3c-0.1,0-0.3-0.1-0.3-0.3s0.1-0.3,0.3-0.3h5.3c0.1,0,0.3,0.1,0.3,0.3S31.9,27.4,31.8,27.4z"/>
		<path class="st15" d="M31.8,41.1h-5.3c-0.1,0-0.3-0.1-0.3-0.3s0.1-0.3,0.3-0.3h5.3c0.1,0,0.3,0.1,0.3,0.3
			C32,41,31.9,41.1,31.8,41.1z"/>
		<path class="st15" d="M31.8,45.7h-5.3c-0.1,0-0.3-0.1-0.3-0.3s0.1-0.3,0.3-0.3h5.3c0.1,0,0.3,0.1,0.3,0.3S31.9,45.7,31.8,45.7z"/>
		<path class="st15" d="M31.8,50.3h-5.3c-0.1,0-0.3-0.1-0.3-0.3s0.1-0.3,0.3-0.3h5.3c0.1,0,0.3,0.1,0.3,0.3S31.9,50.3,31.8,50.3z"/>
		<path class="st15" d="M31.8,55h-5.3c-0.1,0-0.3-0.1-0.3-0.3s0.1-0.3,0.3-0.3h5.3c0.1,0,0.3,0.1,0.3,0.3C32,54.9,31.9,55,31.8,55z"
			/>
		<path class="st15" d="M31.8,59.6h-5.3c-0.1,0-0.3-0.1-0.3-0.3s0.1-0.3,0.3-0.3h5.3c0.1,0,0.3,0.1,0.3,0.3S31.9,59.6,31.8,59.6z"/>
		<path class="st15" d="M31.8,64.2h-5.3c-0.1,0-0.3-0.1-0.3-0.3c0-0.1,0.1-0.3,0.3-0.3h5.3c0.1,0,0.2,0.1,0.3,0.3
			C32,64.1,31.9,64.2,31.8,64.2z"/>
		<path class="st15" d="M31.8,68.8h-5.3c-0.1,0-0.3-0.1-0.3-0.3s0.1-0.3,0.3-0.3h5.3c0.1,0,0.3,0.1,0.3,0.3
			C32,68.7,31.9,68.8,31.8,68.8z"/>
		<path class="st15" d="M31.8,73.5h-5.3c-0.1,0-0.3-0.1-0.3-0.3s0.1-0.3,0.3-0.3h5.3c0.1,0,0.3,0.1,0.3,0.3S31.9,73.5,31.8,73.5z"/>
		<path class="st15" d="M31.8,78.1h-5.3c-0.1,0-0.3-0.1-0.3-0.3s0.1-0.3,0.3-0.3h5.3c0.1,0,0.2,0.1,0.3,0.3
			C32,78,31.9,78.1,31.8,78.1z"/>
	</g>
	<path class="st16" d="M33.7,96.2c-4.9-0.1-8.6-1-11.2-2.7c-2.7-1.7-4.6-4.4-5.4-7.4c-1-4.2-1.4-8.4-1.3-12.7V40.6h-2.2
		c-2,0.1-4-0.5-5.6-1.8c-1.3-1.1-2-2.8-1.9-4.4C6,32.7,6.7,31,8,30c1.7-1.3,3.8-1.9,5.9-1.7h1.9v-4.1c0.8-0.3,1.6-0.6,2.5-0.8V31
		c0,0-9.6-1.4-9.6,2.8c0,1.3,0.5,3.1,1.8,3.7c2.3,1.2,5.4,0.7,7.8,0.4v39.7C18.4,77.6,17.2,95.6,33.7,96.2z"/>
	<g class="st17">
		<path class="st18" d="M658.7,27.6c0,0,2-8.7,7.5-14.3"/>
	</g>
	<g class="st17">
		<path class="st18" d="M708.1,82.7c2.9,0,5.3,2.4,5.3,5.3"/>
	</g>
	<path class="st19" d="M733.1,79.9c3.7,0,6.8,3,6.8,6.8c0,0,0,0,0,0"/>
	<path class="st19" d="M808.2,67.6c0,12.8-10.4,23.2-23.2,23.2h-1.2"/>
	<path class="st19" d="M757.8,30.7c0-12.8,12-23.3,24.9-23.3h1.2"/>
	<g class="st17">
		<path class="st18" d="M48.2,85.3c0.9,0.8,1.4,2,1.2,3.2c-0.2,2.2-3.2,3.3-3.7,3.3"/>
	</g>
</g>
</svg>
