<svg id="Capa_1" data-name="Capa 1" xmlns="http://www.w3.org/2000/svg" viewBox="0 0 28.35 28.35"><defs><style>.cls-1{fill:#f6b944;}.cls-2{fill:#fff;}</style></defs><path class="cls-1" d="M4.91,14.17a12.15,12.15,0,0,1,10.7-12A11.35,11.35,0,0,0,14.17,2a12.15,12.15,0,0,0,0,24.3,13.57,13.57,0,0,0,1.44-.09A12.16,12.16,0,0,1,4.91,14.17Z"/><path class="cls-2" d="M14.17,0A14.18,14.18,0,1,0,28.35,14.17,14.19,14.19,0,0,0,14.17,0Zm0,26.32A12.15,12.15,0,1,1,26.32,14.17,12.16,12.16,0,0,1,14.17,26.32Z"/><path class="cls-2" d="M14.17,7.42a1,1,0,0,0-1,1V19.91a1,1,0,0,0,2,0V8.44A1,1,0,0,0,14.17,7.42Z"/><path class="cls-2" d="M19.91,13.16H8.44a1,1,0,1,0,0,2H19.91a1,1,0,0,0,0-2Z"/></svg>