<svg id="Capa_1" data-name="Capa 1" xmlns="http://www.w3.org/2000/svg" viewBox="0 0 19.88 19.88"><defs><style>.cls-1{opacity:0.2;}.cls-2{fill:#fff;}.cls-3{fill:#f6b944;}</style></defs><rect class="cls-1" x="3.05" y="14.63" width="1.87" height="4.46"/><rect class="cls-1" x="6.82" y="11.46" width="2.12" height="7.63"/><rect class="cls-1" x="10.64" y="3.82" width="2.12" height="15.27"/><rect class="cls-1" x="14.5" y="0.6" width="2.12" height="18.49"/><path class="cls-2" d="M4.92,14.87v4.06H3.13V14.87H4.92m0-.49H3.09a.44.44,0,0,0-.43.45V19a.45.45,0,0,0,.43.46H5A.45.45,0,0,0,5.39,19V14.83A.44.44,0,0,0,5,14.38Z"/><path class="cls-2" d="M8.75,11.68v7.26H7V11.68H8.75m0-.49H6.93a.45.45,0,0,0-.44.45V19a.45.45,0,0,0,.44.45H8.79A.44.44,0,0,0,9.22,19V11.64a.44.44,0,0,0-.43-.45Z"/><path class="cls-2" d="M12.59,4V19H10.8V4h1.79m0-.48H10.76a.44.44,0,0,0-.43.44V19a.44.44,0,0,0,.43.44h1.87a.44.44,0,0,0,.43-.44V3.93a.44.44,0,0,0-.43-.44Z"/><path class="cls-2" d="M16.45.75V19H14.66V.75h1.79m0-.47H14.62a.43.43,0,0,0-.43.43V19a.44.44,0,0,0,.43.44h1.87a.44.44,0,0,0,.43-.44V.71a.43.43,0,0,0-.43-.43Z"/><rect class="cls-3" x="15.1" width="0.91" height="0.91"/><path class="cls-3" d="M19.43,19.5a.08.08,0,0,1-.08-.06L15.5.6l-3.74,3L7.93,11.35l0,0L4.08,14.68.52,19.47a.08.08,0,0,1-.11,0,.09.09,0,0,1,0-.11L4,14.58H4L7.8,11.26l3.82-7.74,0,0L15.5.4a.08.08,0,0,1,.08,0s0,0,.05.06l3.87,19a.08.08,0,0,1-.06.09Z"/><rect class="cls-3" x="3.57" y="14.17" width="0.91" height="0.91" rx="0.12"/><rect class="cls-3" y="18.97" width="0.91" height="0.91" rx="0.12"/><rect class="cls-3" x="7.4" y="10.97" width="0.91" height="0.91" rx="0.12"/><rect class="cls-3" x="11.13" y="3.1" width="0.91" height="0.91" rx="0.12"/><rect class="cls-3" x="18.97" y="18.87" width="0.91" height="0.91" rx="0.12"/></svg>