<svg id="Capa_1" data-name="Capa 1" xmlns="http://www.w3.org/2000/svg" viewBox="0 0 27.09 15.31"><defs><style>.cls-1{fill:#f6b944;}.cls-2{fill:#fff;}</style></defs><path class="cls-1" d="M13,.51V3A12,12,0,0,0,8.79,4.09L7.52,1.93a15.58,15.58,0,0,1,2.71-1,14.19,14.19,0,0,1,2.6-.39"/><path class="cls-1" d="M6.25,2.73l1.19,2A11.79,11.79,0,0,0,4.57,7.83l-2-1.17A14.49,14.49,0,0,1,4.25,4.47a13.21,13.21,0,0,1,2-1.74"/><path class="cls-1" d="M1.8,8,3.86,9.09a10.8,10.8,0,0,0-1,3.9H.56A13,13,0,0,1,1.8,8"/><path class="cls-2" d="M18.24,9.13,13.91,12.4a1.13,1.13,0,0,0-.36-.06,1.21,1.21,0,0,0-1.21,1.18l-.55.4a.34.34,0,0,0-.06.49l.66.78a.33.33,0,0,0,.49,0l.49-.48.18,0a1.21,1.21,0,0,0,1.2-1.21,1,1,0,0,0,0-.17l3.93-3.73A.33.33,0,0,0,18.24,9.13Zm-4.4,5.13a.82.82,0,0,1-.41.05.79.79,0,0,1-.66-.69.82.82,0,0,1,.12-.49.78.78,0,0,1,.47-.34l.19,0a.77.77,0,0,1,.77.77.78.78,0,0,1-.48.72Z"/><path class="cls-2" d="M25.29,8a12.62,12.62,0,0,1,.86,2.39A12.84,12.84,0,0,1,26.53,13H24.19a10.73,10.73,0,0,0-.94-3.87l2-1.14m.24-.76-3,1.67a10,10,0,0,1,1.14,4.65h3.43a13.47,13.47,0,0,0-1.56-6.32Z"/><path class="cls-2" d="M20.83,2.78a13,13,0,0,1,3.7,3.82l-2,1.14A10.89,10.89,0,0,0,19.65,4.8l1.18-2M20.64,2,18.91,5a10.2,10.2,0,0,1,3.38,3.5l3-1.67A13.64,13.64,0,0,0,20.64,2Z"/><path class="cls-2" d="M12.87.57V2.91A10.62,10.62,0,0,0,8.8,4L7.59,2a13.37,13.37,0,0,1,2.5-1A13.76,13.76,0,0,1,12.87.57M13.42,0a13.53,13.53,0,0,0-6.6,1.78l1.78,3a10,10,0,0,1,4.82-1.29V0Z"/><path class="cls-2" d="M6.24,2.8l1.21,2A10.77,10.77,0,0,0,4.62,7.72L2.56,6.59A13.15,13.15,0,0,1,6.24,2.8M6.42,2A13.65,13.65,0,0,0,1.79,6.8l3,1.65A10.14,10.14,0,0,1,8.19,5L6.42,2Z"/><path class="cls-2" d="M1.8,8,3.86,9.09a10.8,10.8,0,0,0-1,3.9H.56A13,13,0,0,1,1.8,8m-.23-.75A13.48,13.48,0,0,0,0,13.54H3.44A10.12,10.12,0,0,1,4.58,8.86l-3-1.64Z"/><path class="cls-2" d="M14.44.58A12.92,12.92,0,0,1,17.07,1a12.76,12.76,0,0,1,2.4,1L18.3,4a10.6,10.6,0,0,0-3.86-1.08V.58M13.89,0V3.44a10.21,10.21,0,0,1,4.62,1.29l1.72-3A13.49,13.49,0,0,0,13.89,0Z"/></svg>