<svg id="Capa_1" data-name="Capa 1" xmlns="http://www.w3.org/2000/svg" viewBox="0 0 20.13 19.94"><defs><style>.cls-1{fill:#f6b944;}.cls-2{fill:#fff;}</style></defs><rect class="cls-1" x="7.54" y="0.28" width="2.93" height="15.52"/><path class="cls-2" d="M20,2.44,17.59.18A.47.47,0,0,0,17.23,0H7.71a.5.5,0,0,0-.5.5V2.05l-3.36.58a.49.49,0,0,0-.4.57l.17,1c-1.09.37-2.21.75-3.29,1.14A.49.49,0,0,0,0,6l2.15,6a.3.3,0,0,0,.28.2l.1,0a.3.3,0,0,0,.17-.38L.62,5.85c1-.36,2.07-.72,3.1-1.07l1,5.91,1.17,6.8a.49.49,0,0,0,.49.42h.08l3.16-.54,2.47-.43L8.39,18.27,5.46,19.32,3.19,13a.3.3,0,0,0-.38-.18.31.31,0,0,0-.18.38l2.31,6.41a.49.49,0,0,0,.46.33.47.47,0,0,0,.17,0l3-1.09,6.84-2.46,1.31-.22h2.89a.5.5,0,0,0,.5-.51V2.78A.44.44,0,0,0,20,2.44Zm-.78.07H17.67c-.07,0-.23,0-.27,0a.14.14,0,0,1,0-.1V.78Zm.35,13H7.8V9.8a.3.3,0,0,0-.3-.29.29.29,0,0,0-.29.29v5.83a.5.5,0,0,0,.5.51h5.54l-3.72.64-3.07.52L5.31,10.59,4.05,3.19l3.16-.54V8.43a.29.29,0,0,0,.29.3.3.3,0,0,0,.3-.3V.59h9V2.37a.7.7,0,0,0,.2.52.9.9,0,0,0,.66.21h1.9Z"/><path class="cls-2" d="M9.22,4.58a.29.29,0,0,0,.29.29H18a.29.29,0,0,0,.29-.29.3.3,0,0,0-.29-.3H9.51A.3.3,0,0,0,9.22,4.58Z"/><path class="cls-2" d="M18,6.38H9.51a.3.3,0,0,0,0,.59H18a.3.3,0,0,0,0-.59Z"/><path class="cls-2" d="M18,8.47H9.51a.3.3,0,0,0-.29.3.29.29,0,0,0,.29.29H18a.29.29,0,0,0,.29-.29A.3.3,0,0,0,18,8.47Z"/><path class="cls-2" d="M18,10.57H9.51a.3.3,0,0,0,0,.59H18a.3.3,0,0,0,0-.59Z"/><path class="cls-2" d="M18,12.67H9.51a.29.29,0,0,0-.29.29.3.3,0,0,0,.29.3H18a.3.3,0,0,0,.29-.3A.29.29,0,0,0,18,12.67Z"/></svg>