<?xml version="1.0" encoding="utf-8"?>
<!-- Generator: Adobe Illustrator 24.3.0, SVG Export Plug-In . SVG Version: 6.00 Build 0)  -->
<svg version="1.1" id="Capa_1" xmlns="http://www.w3.org/2000/svg" xmlns:xlink="http://www.w3.org/1999/xlink" x="0px" y="0px"
	 viewBox="0 0 24 24" style="enable-background:new 0 0 24 24;" xml:space="preserve">
<style type="text/css">
	.st0{fill:#F6B944;}
	.st1{fill:none;}
	.st2{fill:#FCFCFC;}
</style>
<path class="st0" d="M12,16.1c0,0-1.8,1-1.6,4.4L7.6,19L8,17.1l2.3-1.3L12,16.1z"/>
<path class="st0" d="M8.3,16.1c0,0-6.5-7.6,3.3-12.7L6.2,5.1L3.4,9.4l0.3,6l2.5,3.2l1.1-1L8.3,16.1z"/>
<path class="st0" d="M12.3,7.2c0,0-2,2.4-0.3,5.6c0,0-2.5-0.2-2.8-2.8S12.3,7.2,12.3,7.2z"/>
<path class="st1" d="M12,8c-1.2,0-2,0.8-2,2s0.8,2,2,2s2-0.8,2-2S13.2,8,12,8z"/>
<path class="st1" d="M12,4c-4.3,0-8,3.7-8,8c0,2.2,0.9,4.2,2.4,5.6c0.8-1.8,2.5-3.1,4.6-3.1h2c2.1,0,3.9,1.3,4.6,3.1
	c1.5-1.5,2.4-3.5,2.4-5.6C20,7.7,16.3,4,12,4z M12,14c-2.3,0-4-1.7-4-4s1.7-4,4-4s4,1.7,4,4S14.3,14,12,14z"/>
<path class="st1" d="M13,16.6h-2c-1.4,0-2.6,1-2.9,2.4C9.2,19.6,10.6,20,12,20s2.8-0.4,3.9-1.1C15.6,17.6,14.4,16.6,13,16.6z"/>
<path class="st2" d="M12,2C6.6,2,2,6.6,2,12c0,3.2,1.6,6.1,4,7.9V20h0.1c1.7,1.2,3.7,2,5.9,2s4.2-0.8,5.9-2H18v-0.1
	c2.4-1.8,4-4.7,4-7.9C22,6.6,17.4,2,12,2z M8.1,18.9c0.3-1.3,1.5-2.4,2.9-2.4h2c1.4,0,2.6,1,2.9,2.4C14.8,19.6,13.4,20,12,20
	S9.2,19.6,8.1,18.9z M17.6,17.6c-0.8-1.8-2.5-3.1-4.6-3.1h-2c-2.1,0-3.9,1.3-4.6,3.1C4.9,16.2,4,14.2,4,12c0-4.3,3.7-8,8-8
	s8,3.7,8,8C20,14.2,19.1,16.2,17.6,17.6z"/>
<path class="st2" d="M12,6c-2.3,0-4,1.7-4,4s1.7,4,4,4s4-1.7,4-4S14.3,6,12,6z M12,12c-1.2,0-2-0.8-2-2s0.8-2,2-2s2,0.8,2,2
	S13.2,12,12,12z"/>
</svg>
