<svg id="Capa_1" data-name="Capa 1" xmlns="http://www.w3.org/2000/svg" viewBox="0 0 18.85 20.13"><defs><style>.cls-1{fill:#f6b944;}.cls-2{fill:#fff;}</style></defs><path class="cls-1" d="M5.56,5A4.48,4.48,0,0,1,9.15.61,4.48,4.48,0,0,0,3.78,5,4.48,4.48,0,0,0,8.25,9.48a4.43,4.43,0,0,0,.9-.09A4.49,4.49,0,0,1,5.56,5Z"/><polygon class="cls-2" points="18.85 10.07 18.85 10.07 18.85 10.07 18.85 10.07"/><path class="cls-1" d="M6.46,11.26a5.27,5.27,0,0,0-3,2.48c-.78,1.8-.8,5.58,1,6H2.75l-1.51-.65L.18,16.88l.17-1.8L.8,13.17l.59-1.51,1-1.08,1-.51h1l.82.38Z"/><path class="cls-2" d="M16.76,15.48c0-.39-.09-.82-.17-1.27a.69.69,0,0,0,0-.13s0,0,0-.06a.3.3,0,0,0-.28-.2.29.29,0,0,0-.28.29v.07s0,.09,0,.13a11.9,11.9,0,0,1,.16,1.21v0c0,.36,0,.74,0,1.13a2.78,2.78,0,0,1-.82,2.12,3,3,0,0,1-2.16.77H3.55a3,3,0,0,1-2.16-.77,2.78,2.78,0,0,1-.82-2.12c0-.39,0-.78,0-1.15a11.72,11.72,0,0,1,.15-1.21,9.73,9.73,0,0,1,.3-1.21A5.75,5.75,0,0,1,1.54,12a3.76,3.76,0,0,1,.69-.9,3,3,0,0,1,1-.6,3.26,3.26,0,0,1,1.14-.22h.16l.14.08.28.17.83.53a5.6,5.6,0,0,0,1.19.53,4.77,4.77,0,0,0,1.48.24,4.67,4.67,0,0,0,1.47-.24,5.7,5.7,0,0,0,1.2-.53l.82-.53.28-.17.14-.08h.17a3.16,3.16,0,0,1,1.13.22,2.9,2.9,0,0,1,1,.6,3.76,3.76,0,0,1,.69.9,5.81,5.81,0,0,1,.42.92v0a.3.3,0,0,0,.27.17.29.29,0,0,0,.28-.28V12.8l0-.08a5.15,5.15,0,0,0-.46-1,4.39,4.39,0,0,0-.79-1A3.29,3.29,0,0,0,13.82,10a3.82,3.82,0,0,0-1.45-.26,1.44,1.44,0,0,0-.79.33l-.82.53a4.88,4.88,0,0,1-1.06.47,4.13,4.13,0,0,1-2.6,0A4.88,4.88,0,0,1,6,10.59l-.82-.53a1.5,1.5,0,0,0-.79-.33A3.83,3.83,0,0,0,3,10a3.49,3.49,0,0,0-1.14.71,5,5,0,0,0-.79,1,6,6,0,0,0-.52,1.19A10.4,10.4,0,0,0,.2,14.21c-.08.45-.13.88-.16,1.27s0,.79,0,1.19A3.34,3.34,0,0,0,1,19.2a3.57,3.57,0,0,0,2.56.93h9.7a3.56,3.56,0,0,0,2.55-.93,3.35,3.35,0,0,0,1-2.53C16.8,16.26,16.78,15.86,16.76,15.48Z"/><path class="cls-2" d="M12.79,5.14a.31.31,0,0,0-.29.24v0a4,4,0,0,1-1.21,2.44,4.1,4.1,0,0,1-3,1.25,4.06,4.06,0,0,1-3-1.25A4.06,4.06,0,0,1,4,4.85a4.06,4.06,0,0,1,1.25-3,4.06,4.06,0,0,1,3-1.25,4.1,4.1,0,0,1,3,1.25,4,4,0,0,1,1.2,2.37v0a.29.29,0,0,0,.58-.06V4.14A4.65,4.65,0,0,0,11.7,1.42,4.7,4.7,0,0,0,8.27,0,4.72,4.72,0,0,0,4.84,1.42,4.7,4.7,0,0,0,3.42,4.85,4.7,4.7,0,0,0,4.84,8.28,4.72,4.72,0,0,0,8.27,9.7,4.7,4.7,0,0,0,11.7,8.28,4.65,4.65,0,0,0,13.08,5.5V5.44A.3.3,0,0,0,12.79,5.14Z"/></svg>